<?xml version="1.0" encoding="UTF-8"?><svg id="Layer_1" xmlns="http://www.w3.org/2000/svg" width="109.85" height="90.15" viewBox="0 0 109.85 90.15"><defs><style>.cls-1{fill:#51654e;}</style></defs><path class="cls-1" d="M32.63,9.95c.67.47,1.03,1.19,1.47,1.83.85,1.24,1.54,2.58,2.4,3.81.19.27.23.65.41.94,1.16,1.87,2,3.92,3.07,5.84.36.65.62,1.34.96,2.01.13.25.18.54.28.86,1.12.34,2.22.83,2.82,1.92-.09.15-.16.28-.22.38-.73-.46-1.39-.87-2.16-1.35h-.5c-.38-.57-.43-1.29-.92-1.9.09.99.38,1.78.76,2.61.64.01,1.14.41,1.58.86v.83c-.74-.13-.8-.98-1.39-1.23-.04.04-.09.09-.18.18-.21-.28-.43-.55-.62-.83-.3-.46-.47-.96-.61-1.51-.17-.68-.64-1.27-1.04-1.88-.63-.96-1.19-1.98-1.83-2.94-.66-.98-1.34-1.93-2.11-2.82-.09-.1-.09-.27-.14-.4.37.34.82.63,1.09,1.04.26.41.57.73.95.99-.03.29.08.48.38.54,0,0-.02.01-.03.03.04.05.09.1.13.15.02-.02.04-.04.06-.06-.05-.04-.1-.09-.16-.12.02-.28-.09-.47-.38-.54.07-.43-.37-.52-.52-.8-.78-1.49-1.9-2.75-2.97-4.02-1.11-1.33-2.4-2.51-3.75-3.61-.29-.24-.62-.43-.97-.66-.12.24-.22.46-.31.66.88.69,1.76,1.3,2.54,2.02,1.07.98,2.06,2.03,3.07,3.06.09.09.09.27.14.4-.81-.78-1.65-1.55-2.44-2.36-.84-.86-1.83-1.56-2.73-2.34-.17-.14-.4-.21-.67-.35-.11.43-.21.81-.3,1.16.85,1,1.7,1.93,2.47,2.92.62.81,1.31,1.55,1.95,2.34.78.97,1.67,1.85,2.38,2.89.29.42.7.74,1.02,1.14.72.92,1.55,1.75,2.38,2.66.16-.23.25-.37.42-.61.2.5.57.83.19,1.29-.05.06-.06.17-.04.25.05.32.14.63.17.94.03.32-.05.66.18.94.05.06,0,.18,0,.29-.07.08-.15.17-.28.3-.7-.85-.65-1.85-.64-2.88-.52-.52-1.07-1.05-1.6-1.61-.77-.81-1.56-1.62-2.28-2.48-.73-.87-1.5-1.71-2.21-2.6-.91-1.14-1.89-2.24-2.65-3.51-.41-.69-1-1.28-1.58-2v1.76c2.3,3.78,4.96,7.22,8.01,10.34h.4c.04-.1.07-.21.11-.33.04.01.09.02.13.04.16.11.21.27.21.47,0,.25.08.51.14.84,0,0-.07.06-.1.14-.03.07-.03.16-.05.28h.52c.13.87.58,1.6,1.11,2.53-.32-.13-.47-.14-.55-.22-.22-.25-.41-.52-.73-.72.11.25.22.5.38.86.06.58.05,1.31.22,2,.17.67.41,1.35.9,1.88.03.14-.09.35.19.36,0,0-.02.01-.03.03.04.05.09.1.13.15.02-.02.04-.04.06-.06-.05-.04-.1-.09-.16-.12-.04-.13.08-.34-.19-.36-.07-.59-.15-1.17-.19-1.49.16-.33.22-.47.29-.61.15.1.24.13.29.2.22.32.26.69.36,1.05.19.75.43,1.48,1.1,1.97-.03.29.08.48.37.55.06.06.12.12.18.18.06.06.12.12.18.18s.12.12.19.18c0,0-.02.01-.03.03l.13.15s.04-.04.06-.06c-.05-.04-.1-.09-.16-.12-.07-.05-.13-.11-.19-.18-.06-.06-.12-.12-.18-.18s-.12-.12-.18-.18c.03-.29-.08-.48-.37-.55,0-.09.04-.23,0-.27-.39-.38-.37-.85-.37-1.33,0-.11-.07-.21-.13-.36.07-.13.18-.3.34-.58.15.31.35.51.33.69-.04.46.32.75.37,1.14.06.42.33.67.55.98.54.76.71.96,1.45,1.39.16-.06.32-.18.47-.17.19,0,.43.06.56.18.45.43,1.04.63,1.58.89.26.12.38.53.76.39.06.1.11.19.22.37-.24.06-.51.24-.66.16-.95-.46-2.04-.64-2.78-1.45-.09.06-.19.16-.22.14-.29-.21-.56-.43-.84-.64-.04-.03-.11-.04-.2-.08-.13.12-.28.25-.39.35-.8-.53-1.55-1.08-2.08-1.86-.19.11-.31.18-.39.23-.21-.06-.38-.12-.62-.19.41.88.91,1.54,1.69,1.97.7.39,1.27,1.1,2.18.96.04-.16.07-.24.09-.32.32-.02.56.02.85.2.67.41,1.34.91,2.2.93.11.11.21.23.31.33h1.8c.22.12.38.21.63.36-.27.2-.47.35-.69.52.07.16.16.34.22.49-.19.74-.78,1.09-1.19,1.56h-.47c0-.12-.02-.2-.02-.29,0-.12,0-.24,0-.34.55-.29.68-.42,1.11-1.13-.83.65-1.68.49-2.5.49-.18-.18-.35-.35-.55-.55-.5,0-1.04.08-1.53-.03-.43-.1-.86-.27-1.26-.51-.44-.27-.78-.58-1.07-1.13.28,0,.46,0,.6,0,.55.32,1.05.73,1.63.9.6.18,1.21.47,1.87.39.64-.07,1.24.41,1.93.1-.32-.1-.59-.26-.87-.27-.49-.01-.91-.08-1.13-.58-.03-.07-.12-.14-.2-.17-.35-.13-.7-.24-1.13-.38-.64.52-1.35-.05-2.1,0-.33-.27-.69-.53-1.08-.83v-.62c-1.02-.72-1.76-1.65-2.03-2.89.06-.06.12-.13.15-.17-.23-.45-.45-.88-.7-1.37.07-.79-.57-1.65.03-2.49-.57-.5-.62-1.2-.86-1.8-.1,0-.19,0-.3-.01q-.23-.18-.53-.01c.21,0,.38,0,.53.01.07.11.13.21.18.3-.06.07-.12.13-.13.15.05.33.14.62.14.9,0,.71.2,1.36.47,2.02.16.38.57.83.09,1.23.02.53.72.72.5,1.31-.12,0-.24.01-.4.02-.72-.68-1.15-1.54-1.33-2.56.09-.24.19-.53.31-.83-.43-.47-.01-1.1-.3-1.7-.11.23-.21.38-.25.54-.04.18.02.37-.01.55-.24,1.12-.26,1.44.01,2.15.12.32.3.62.47.91.15.26.11.45-.09.62.17.23.34.46.49.67.24-.09.45-.16.68-.25.19.41.33.79.54,1.13.41.67.75,1.41,1.55,1.75.13.06.22.21.33.32.13.13.27.25.39.4.07.1.27.13.2.36-.16-.02-.34.01-.44-.06-.86-.72-1.84-1.31-2.45-2.27-.23-.36-.54-.61-.87-.8-.7-.41-1.1-1.05-1.54-1.68-.39-.54-.4-1.15-.36-1.8-.2-.15-.38-.29-.58-.43-1.35-.9-2.69-1.82-4.06-2.68-1.12-.7-2.25-1.37-3.43-1.97-1.32-.67-2.62-1.39-3.99-1.95-.69-.28-1.3-.72-2.07-.8-.23-.02-.79-.49-1.01-.74.18.02.35,0,.47.05,1.54.73,3.18,1.25,4.68,2.08.05.03.09.08.15.09.77.18,1.41.61,2.08,1,.46.27.92.59,1.48.66,0,0-.02.01-.03.03.04.05.09.1.13.15.02-.02.04-.04.06-.06-.05-.04-.1-.09-.16-.12-.45-.57-1.04-1-1.52-1.55-.54-.62-1.22-1.15-1.93-1.56-1.08-.63-2.21-1.19-3.37-1.67-.94-.39-1.85-.84-2.77-1.28,2.59.73,4.98,1.94,7.4,3.32-.18-.58-.22-1.08-.38-1.58-.16-.49.09-1.08-.28-1.55-.09-.02-.19-.02-.25-.07-.52-.45-1.04-.91-1.56-1.37-.38-.33-.74-.7-1.17-.97-1.23-.78-2.48-1.51-3.71-2.25-.24.24-.44.44-.51.51-.15.33-.27.5-.31.69-.04.2-.15.4-.17.57-.18,1.14.08,2.26.66,3.21.43.71.53,1.31.25,2.07-.26.7-.22.75.09,1.46.06.13.16.25.19.38.14.55.42,1.06.15,1.7-.18.44-.12.97.05,1.48.22.69.57,1.26,1.06,1.78.87.91,1.9,1.61,2.91,2.34.13.09.34.05.52.07.06.06.12.12.18.18.19.16.38.31.58.47-.09.21-.16.39-.23.54.3.77.67,1.19,1.5,1.57.7.32,1.38.71,2.12.89.77.19,1.6.17,2.4.22.31.02.61,0,.72,0,.26.26.42.41.57.57-.07.03-.2.17-.32.16-.59-.06-1.19.16-1.78-.15-.24-.13-.61,0-.91-.03-.29-.03-.57-.09-.84-.18-.59-.2-1.21-.36-1.76-.65-.79-.41-1.49-.98-2.03-1.67-.09-.38-.18-.75-.25-1.07-.91-.58-1.8-1.14-2.71-1.72-.66.49-1.39.99-2.23,1.29.37.31.7.61,1.05.89.32.25.66.49.99.71.79.53,1.57,1.08,2.4,1.56.46.27.92.59,1.7.77.1-.03.06-.1.04-.1-.09.01-.17.05-.26.08.11.03.22.06.22.02-.5-.53-.97-.73-1.35-1.03-.72-.57-1.51-1.06-2.02-1.85.09,0,.18,0,.16,0,.95.71,1.79,1.42,2.71,2.01,1.22.8,2.51,1.5,3.88,2.01.37.14.71.36,1.12.42.89.14,1.71.5,2.62.61.72.08,1.37.18,2.08.01-.73-.64-1.21-1.42-1.48-2.4.15-.09.31-.19.46-.29.4,1.08.79,2.09,1.65,2.77h.85c-.59-.67-1.15-1.31-1.62-1.85v-.68c.13-.04.23-.07.31-.09-.17-.25-.31-.46-.46-.68-.56-.44-1.35-.29-1.91-.74-.39.06-.62-.28-.95-.38-.55-.16-1.07-.38-1.62-.54-.55-.16-1.08-.39-1.63-.52-.4-.1-.7-.43-1.13-.41-.54.02-1.01-.22-1.51-.35-.36-.09-.71-.33-1.12-.2v-.18c.37,0,.74-.02,1.1,0,.19.02.39.09.57.18.42.21.88.25,1.32.36.61.16,1.23.28,1.83.49,1.45.5,2.89,1.03,4.39,1.57,0-.2,0-.38.03-.54.04-.16.13-.31.22-.52-.16-.14-.31-.31-.49-.42-1.21-.75-2.51-1.36-3.84-1.85-.93-.34-1.83-.8-2.83-.95-1.52-.78-3.17-1.26-4.66-2.09-.63-.35-1.36-.55-1.9-1.06.2.03.39-.03.6.12.35.24.73.48,1.14.59,1.38.38,2.59,1.18,3.96,1.6.43.13.85.32,1.28.48.4.15.77.51,1.16.51.52,0,.88.31,1.32.44.9.26,1.75.68,2.61,1.04.95.4,1.67,1.09,2.39,1.84-.08.14-.15.26-.23.4.36.88.97,1.58,1.6,2.29.64.72,1.59.92,2.39,1.6-.35,0-.59.07-.76-.01-.46-.22-.9-.52-1.35-.77-.12-.07-.27-.09-.41-.12,0,0,.02-.01.03-.03-.04-.05-.09-.1-.13-.15-.02.02-.04.04-.06.06.05.04.1.09.16.12.17.45.48.81.87,1.1.35.26.74.47,1.07.74,1.16.96,2.45,1.61,3.95,1.86.14.02.27.17.51.32-1.18.15-2.16-.23-3.1-.55-.92-.32-1.82-.82-2.42-1.59-.24.09-.45.16-.67.24.08.11.12.17.25.35-.48-.17-.79-.28-1.14-.41-.27.13-.98.3-1.34.13-.42-.2-.82-.18-1.23-.15-.43.04-.81-.17-1.22-.19-.77-.03-1.47-.32-2.2-.49-.58-.14-1.12-.43-1.69-.61-1.5-.46-2.8-1.29-4.13-2.08-.75-.44-1.47-.94-2.17-1.46-.71-.53-1.44-1.06-2.07-1.68-.79-.78-1.73-1.04-2.77-1.1-.38.26-.8.45-1.08.76-.27.3-.4.74-.62,1.17-.5-.15-.98-.29-1.47-.44.07.19.19.29.32.37.22.14.45.25.66.4,1.18.82,2.47,1.48,3.7,2.22.88.54,1.8.99,2.72,1.45.87.44,1.77.77,2.68,1.11.25.09.48.21.76.18.09.36.37.11.78.29.1-.03.06-.1.04-.1-.09.01-.17.05-.26.08.11.03.22.06.22.02-.31-.46-.6-.22-.78-.29-.39-.46-.99-.51-1.5-.71-.88-.35-1.71-.79-2.54-1.23-.84-.44-1.6-1.05-2.4-1.57-.73-.47-1.46-.93-2.21-1.74.31.1.42.1.5.16.97.69,1.93,1.38,2.97,1.96.72.41,1.4.88,2.18,1.21.57.24,1.13.56,1.71.79,1,.4,2.07.68,3.08,1.04,1.44.51,2.92.72,4.39.98.84.15,1.71.36,2.6.22.12-.02.27-.04.36,0,.76.38,1.56.08,2.33.17.33-.38.69-.06.96,0,.12-.09.18-.13.26-.19.13.21.23.39.33.56.09,0,.22-.04.27,0,.47.39,1.06.43,1.62.56.28.07.53.27.79.41-.56.04-1.09.29-1.62-.04-.25-.16-.62-.2-.93-.19-.8.04-1.6.13-2.4.22-.1.01-.19.12-.23.14-.2-.08-.34-.19-.47-.18-1.21.1-2.37-.2-3.54-.41-.41-.07-.82-.11-1.22-.17-.33-.05-.64-.25-.96-.34-.33-.09-.72-.06-1.02-.22-.35-.19-.78-.02-1.02-.21-.28-.22-.57-.08-.84-.22-.76-.39-1.62-.53-2.43-.82-.89-.33-1.74-.71-2.6-1.09-1.41-.63-2.77-1.37-4.07-2.22-.68-.44-1.39-.84-2.04-1.32-.87-.63-1.69-1.32-2.72-1.69-.36.31-.81.13-1.19.22-.81.23-1.32.74-1.55,1.55-.03.12-.02.28-.04.43-.13,1.09.47,1.8,1.36,2.17.7.29,1.36.77,2.16.81.1,0,.19.13.29.2.86.61,1.73,1.2,2.56,1.84,1.08.83,2.26,1.5,3.46,2.14.52.28,1.09.46,1.53.64-.06.14-.12.29-.19.44-.17-.12-.23-.19-.31-.21-1.28-.4-2.39-1.09-3.49-1.83-1.05-.71-2.06-1.47-3.03-2.28-.21-.18-.5-.36-.76-.37-.63-.03-1.16-.34-1.75-.49-.11-.03-.23-.03-.52-.06.67.83,1.34,1.4,2,2,1.64,1.5,3.48,2.71,5.39,3.8.69.39,1.44.68,2.17,1,.08.03.18,0,.31,0,.31.37.58.83.96,1.13,1.05.83,2.28,1.36,3.57,1.6.94.18,1.95.04,3.07.04-.99-.63-1.89-1.1-2.66-1.73-.85-.7-1.58-1.55-2.37-2.33-.67-.08-1.29.15-1.86.4-.31.14-.55.13-.93.1.53-.88,1.3-1.07,2.28-1.11-.4-.29-.66-.55-.97-.69-.92-.41-1.74-1-2.6-1.52-.62-.38-1.21-.82-1.78-1.27-.67-.52-1.4-.92-2.16-1.29-.48-.02-.98.03-1.6-.05,1.09-.6,2.01-.34,2.87.15.63.36,1.19.84,1.8,1.23,1.27.8,2.54,1.6,3.83,2.35.71.41,1.49.72,2.3,1.1h.66c.25-.19.45-.35.64-.51.19-.16.52-.32.52-.49.01-.35.31-.33.43-.36.73-.17,1.43-.46,2.22-.12.54.24,1.15.36,1.65.7.81.54,1.46,1.28,2.15,1.95.2.2.32.42.29.73-.32-.47-.71-.89-1.16-1.18-.48-.32-.84-.84-1.45-.94-.35-.53-1.12-.16-1.41-.66-.35-.07-.65.09-.93-.17-.1-.09-.4-.1-.52-.02-.42.29-1.02.35-1.24.88v.41c-.35-.06-.48.14-.59.49.21.19.44.39.66.6.77.72,1.44,1.55,2.32,2.14.48.32.94.69,1.42,1.01.1.06.28,0,.66-.02-1.84-1.14-3.11-2.6-4.48-3.94v-.28c.09,0,.18,0,.21,0,.51.21.61.72,1.03.99.43.28.73.74,1.13,1.08.93.8,2.06,1.35,2.78,2.41.05.08.21.08.3.14.7.43,1.46.71,2.28.72.21,0,.35.45.66-.03-.54-.46-1.04-1.01-1.18-1.91.64.64,1.18,1.19,1.73,1.73.15.15.31.29.48.41.88.6,1.84,1.03,2.87,1.31.38.1.74.2,1.13.17,1.58-.13,3.15.2,4.73.19.09,0,.18,0,.27.02,1.06.27,1.92.25,2.81-.02.32-.1.64-.25.93-.43.29-.19.53-.14.84-.02-.62,1.08-1.73,1.08-2.67,1.47.17.64-.4,1.25-.11,1.9.66.13,1.25.41,1.84.72.75.4,1.54.66,2.39.1-.12-.22-.23-.45-.36-.7-.11-.76-.31-1.56-.22-2.37,0-.06.03-.14,0-.18-.36-.43-.11-.92-.19-1.39h.36v1.15c.19.19.34.34.54.55.63.06,1.31.12,1.99.18.31-.24.64-.32.95-.46.34-.15.66-.33.98-.52.09-.05.14-.18.26-.34-.48-.06-.86-.03-1.23-.18-.29-.11-.72-.15-1.02.16-.55-.06-1.05.05-1.52.36-.08.05-.26-.03-.38-.05,0-.1-.01-.15,0-.16.09-.05.19-.09.27-.15.51-.37,1.1-.47,1.69-.6.66-.14.65-.17,1.9.04.49.08.99.13,2.1-.07.29-.09.02.08-.27.19-.31.11-.51.3-.69.55.85.99,1.23,1.75,1.12,2.29.93-.15,1.83-.3,2.71-.45-.52-1.13-1.36-2.01-2.87-2.59-.65-.15-.34-.3-.06-.48.39-.25.76-.53,1.22-.85-1.53-.33-2.93-.71-3.93-1.99-.35.65-.6,1.29-.99,1.8-.45.58-1.03,1.05-1.59,1.61-.18-.02-.4-.05-.79-.11.41-.41.73-.69,1-1.01.42-.49.86-.99,1.21-1.53.32-.5.58-1.05.81-1.6.2-.47.47-.95.22-1.54-.87.33-1.73.7-2.28,1.43-.55.74-.75,1.66-.59,2.45-.19.5-.37.73-.84.84-.44.1-.91.39-1.24.8-.26.32-.56.62-1.05.63-.64-.3-1.25-.77-2.02-.5-.04.12-.08.22-.14.4-.19-.14-.32-.24-.48-.36.2-.23.36-.47.58-.64.54-.43,1.04-.06,1.53.15.18.07.34.19.58.32.34-.39.64-.73.83-.96.3-.09.43-.13.57-.17.14-.04.28-.07.46-.12.41-.4.81-1.04.81-1.53,0-.74.37-1.27.85-1.78.62-.65,1.44-.94,2.24-1.28.16-.07.3-.17.44-.25-.08-.23-.17-.42-.19-.61-.03-.24,0-.49,0-.73-.29-.79-1.05-.98-1.66-1.36-.32-.2-.64-.4-.87-.54-.08-.33-.12-.54-.17-.76.1-.06.2-.12.3-.18.21.37.5.66.88.8.1.22.19.43.26.59,1.65.49,2.08,1.72,2.02,3.1,1.09.43,2.15.58,3.23.5,1.06.54,2.11-.16,3.18,0,.16-.95.55-1.83.37-2.81-.19.04-.34.06-.48.09-.48.12-.93.32-1.44.31-1.37-.03-2.74.07-4.1-.35-.94-.29-1.74-.74-2.51-1.31-.04-.03-.04-.11-.07-.19h.34c.02.05.03.14.07.15.54.25,1.08.51,1.64.72.76.27,1.54.54,2.34.59,1.64.11,2.59.03,4.45-.43,0-.55.05-1.11-.01-1.65-.06-.55.43-1.06.12-1.6-.66.33-1.26.65-1.89.94-.93.42-1.89.75-2.93.72-.34,0-.68,0-1.02,0v-.33c1.39-.07,2.75-.34,4.01-.97.27-.14.54-.28.93-.48-.76-.03-1.41.07-1.96-.11-.61-.2-1.19-.06-1.68-.16-.62.32-.98.86-1.62,1.02-.2.05-.4.09-.6.09-.58.01-1.17,0-1.77,0-.1-.14-.19-.28-.29-.42.09-.07.13-.13.18-.13.18-.01.37-.02.55,0,1.12.1,2.04-.27,2.77-1.14.28-.34.59-.67,1.15-.71.01.23.02.46.03.75,1.45-.06,2.87.13,4.44-.28.35-.19.46-.74.72-1.18.82-1.4,1.8-2.55,3.45-3.04.85-.25,1.55-.11,2.25.32.14.09.19.33.29.51-.54.41-.95-.17-1.42-.05-.14.03-.33-.18-.47-.16-.33.06-.66.18-.98.29-.21.07-.48.12-.62.27-.59.61-1.27,1.12-1.71,1.87-.54.91-.93,1.86-.96,2.93-.31.4-.14.87-.19,1.31-.05.44-.13.87-.18,1.31-.05.41.11.85-.19,1.22.12.68-.27,1.25-.48,2.11.04.09.11.06.1.03-.01-.09-.05-.17-.08-.26-.03.11-.06.22-.02.23.5-.32.52-.7.66-.96.67-1.29,1.2-2.64,1.72-4,.44-1.17,1.05-2.28,1.62-3.39.37-.72.86-1.37,1.6-1.84h.49c-.56.58-1.12,1.05-1.43,1.85,1.51-.65,2.95-1.22,4.2-2.09,1.11-.77,2.15-1.66,2.73-2.98.2-.46.55-.87.74-1.36.02-.05.15-.06.24-.1.18.95.17.99-1,3.15.59-.03.92-.41,1.24-.78.44-.52.83-1.07,1.25-1.6.22-.28.45-.55.65-.84.19-.28.35-.59.53-.9-.5-.42-1.03-.37-1.58-.06q-.23.43-.74.72c-.18-.75.39-1.07.75-1.48.33-.07.64-.14.95-.21.26.36.63.09.89.2,1.82-1.01,1.71-.84,3-.18-.18.07-.33.19-.4.15-.51-.26-1.06-.15-1.65-.18-.23.23-.5.48-.74.75-.17.2-.42.42-.43.64-.02.47-.3.81-.5,1.19-.2.38-.52.7-.87,1.15.21-.07.34-.08.44-.15.79-.54,1.58-1.08,2.37-1.63.81-.56,1.62-1.13,2.44-1.69.09-.06.22-.05.34-.07-.52.8-1.34,1.26-2.05,1.85-.34.28-.73.5-1.05.8-1.18,1.12-2.56,1.98-3.89,2.89-.9.61-1.86,1.15-2.82,1.67-1.21.64-2.48,1.14-3.82,1.49-.3.08-.59.21-.91.32-.12-.1-.27-.23-.41-.34-.09.04-.18.05-.19.09-.2.5-.39,1-.58,1.51.17.15.18-.08.27-.09.15-.01.31,0,.46,0,1.06-.14,2.09-.39,3.1-.76,1.08-.39,2.08-.93,3.1-1.45,1.18-.6,2.32-1.27,3.43-1.98,1.41-.89,2.85-1.7,4.44-2.21.08-.03.16-.07.25-.07.18-.01.37,0,.62,0,.02-1.11.57-2.08,1.01-3.06.4-.89.95-1.73,1.56-2.49.68-.83,1.46-1.59,2.28-2.29,1.03-.88,2.25-1.5,3.5-2.03.39-.17.84-.2,1.26-.3.52-.13,1.1-.08,1.57-.23.49-.16.95-.07,1.42-.14.44.37,1.02.14,1.53.33.44.16.94.27,1.39.43.71.25,1.41.44,2.17.33.1.12.22.23.27.36.04.1,0,.23,0,.38-1.22.04-2.27.5-3.3,1.01-1.18.59-2.3,1.25-3.27,2.15-.49.46-1.04.84-1.56,1.25,0,.33.27.26.39.22.64-.22,1.32-.22,1.97-.37.65-.15,1.34-.07,1.98-.34.23-.1.53-.02.81-.02v.5c-.67.11-1.3.26-1.85.7-.75.59-1.57,1.11-2.36,1.64-1.1.74-2.25,1.36-3.59,1.61-.5.09-.98.33-1.51.36-.52.03-.84.49-1.27.71-.15.08-.29.19-.44.29.18.25.41.51.57.81.16.3.25.63.39.99,1.06-.26,1.96.27,2.91.54.4.11.73.49,1.05.79.65.61.79,1.47.88,2.27.05.43-.29.91-.45,1.38.41.71.84,1.46,1.21,2.1.74-.02,1.25-.37,1.96-.19.88.21,1.64.7,2.5.89.2.05.4.12.6.12.75-.02,1.49.02,2.2.28v.24c-.93,0-1.31.69-1.66,1.42-.3.64-.63,1.28-.92,1.93-.5,1.12-1.3,1.91-2.41,2.43-.72.34-1.43.72-2.12,1.12-.19.11-.31.36-.46.54-.22.06-.43.12-.71.2-.01-.15-.09-.35-.02-.42.2-.22.31-.52.57-.7.24-.18.48-.37.71-.56,0,0,.01.02.03.03.05-.04.1-.09.15-.13-.02-.02-.04-.04-.06-.06-.04.05-.09.1-.12.16-.14,0-.33-.05-.45.02-.79.41-1.65.63-2.4.94-.13.26-.19.5-.34.65-.09.09-.32.04-.47.06-.09-.41.06-.78-.09-1.08-.32.06-.57.11-.82.16-.46.1-.92.26-1.4.18-.77.41-1.64.33-2.46.53-.65.16-1.36.08-2.05.18-1.07.15-2.16.05-3.25.2-.91.12-1.84.03-2.77.02-.26,0-.56.12-.76-.16-.62.05-1.23-.08-1.87.13-1.05.35-2.16.53-3.27.58-.61.03-1.23.03-1.85,0-.96-.04-1.93.15-2.88-.17-.17-.06-.39.02-.58.03.56.25.95,1.06,1.66.51.16.07.29.16.42.18.43.08.92.03,1.3.21.56.28,1.16.3,1.73.49.57.19,1.21.34,1.85.22.03,0,.07-.01.09,0,.89.46,1.89.3,2.83.52.68.16,1.42.1,2.14.18,1.06.13,2.15.06,3.23.02,1.05-.04,2.1.11,3.16-.15.74-.19,1.54-.15,2.32-.21.06,0,.13.02.18,0,.62-.29,1.31-.24,1.96-.42.46-.49,1.04-.9,1.22-1.63.1.02.19.04.34.07-.2.42-.38.81-.57,1.22.11.01.17.04.22.02.94-.31,1.91-.4,2.9-.38.4,0,.85.16,1.22-.16.07-.06.29-.05.35.01.23.27.51.15.77.16.49.02.99,0,1.48,0,.83,0,1.63.2,2.44.34.69.12,1.33.49,2.06.4.36.34,1.01.02,1.85.8.11.06-.26-.19-.65-.23-1.14-.09-2.19-.73-3.36-.57-.03,0-.07.01-.09,0-.37-.32-.82-.21-1.21-.16-.44.05-.8-.23-1.22-.2-1.3.08-2.6-.18-3.89.16-.4.11-.86,0-1.29.02-.44.03-.87.15-1.31.17-.72.04-.84.08-1.31.67.35.08.71.24,1.08.24.9,0,1.78.24,2.69.22,2.15-.06,4.3-.02,6.45-.02.22,0,.49-.09.63.02.34.25.7.12,1.04.17.35.05.7.2,1.03.16.47-.05.9.12,1.3.24.26.08.52.08.76.16.22.07.41.22.61.34.03-.04.05-.07.08-.11-.26-.35-.52-.7-1.34-1.29-.44-.25-.33-.25-.13-.25-.08-.18-.09-.32-.16-.37-.85-.64-1.77-1.13-2.77-1.49-.38-.14-.74-.19-1.12-.16-1.11.07-2.21-.12-3.32.15-.77.19-1.57,0-2.28-.43-.06-.22-.13-.44-.19-.65.09,0,.21-.04.27,0,.27.17.5.45.8.53.48.13.99.15,1.49.2.6.06,1.11-.3,1.66-.45,1.09-.3,2.03-.92,2.97-1.51.98-.61,2.03-1.05,3.06-1.55.42.08.68-.29,1.05-.37.65-.15,1.29-.35,1.97-.38.28-.01.56-.12.85-.17.26-.05.5.03.77-.16.21-.14.6-.03.9-.03.46,0,.93.05,1.38-.01.5-.06.93.16,1.4.2.46.04.9.17,1.33.36.1.04.24,0,.39,0v.49c-.06.06-.14.14-.26.26-1.12-.12-2.18.21-3.25.53-.58.18-1.04.55-1.47.9-1.23,1-2.54,1.82-4.03,2.34-.16.06-.31.16-.57.29h-.84c-.1.1-.16.16-.25.25.57.33.97.83,1.41,1.3.46.49.82,1.05,1.18,1.63.33.54.64,1.1.98,1.63.34.53.55,1.13.73,1.85-.46,0-.85.02-1.24,0-1.02-.06-1.96.23-2.88.63-.29.12-.59.28-.89.28-.66,0-1.28.28-1.96.22-.67-.06-1.36-.04-2.03,0-.2.01-.34-.33-.61-.04-.11.12-.47,0-.72.03-.31.04-.62.13-.7.53h-.47v-.68c.17-.11.39-.25.58-.38,1.77-.15,3.54.18,5.28-.34-.12-.02-.25-.06-.37-.05-.45.04-.88-.1-1.31-.18-.4-.08-.85.14-1.22-.18-.05-.05-.18,0-.27,0-.44-.01-.87,0-1.32-.16-.37-.14-.82.07-1.22-.19-.13-.08-.37.01-.54-.02-.4-.07-.81.13-1.23-.16-.29-.19-.78.15-1.11-.21-.82.13-1.55-.29-2.34-.39-.67-.09-1.31-.39-1.96-.6-.9-.3-1.71-.78-2.53-1.25-.18-.1-.33-.28-.31-.56.17.08.3.15.43.21.93.5,1.95.8,2.92,1.21,1.04.44,2.12.72,3.19.97.99.23,2.03.43,3.07.41.12,0,.25,0,.35.03.64.23,1.32.22,1.99.32.71.11,1.42.13,2.14.2.34.37.84.08,1.25.34.32.2.79.17,1.2.21.42.04.78-.14,1.15-.34.22-.12.5-.13.74-.21.16-.06.31-.16.62-.33-1.18-.11-2.17.03-3.16-.2-.69-.16-1.42-.1-2.14-.17-1.01-.09-2.03-.37-3.06-.23-.12.02-.3.06-.36,0-.42-.44-.98-.03-1.46-.27-.42-.21-.97-.2-1.46-.25-.82-.08-1.61-.32-2.43-.43-.6-.08-1.22-.31-1.8-.52-.61-.22-1.22-.48-1.82-.74-.31-.14-.6-.33-.91-.5.01-.01,0,.02-.03.03-.13.07-.25.13-.42.26-.23.02-.51-.02-.65.25.68.53,1.38,1.02,2.03,1.59.81.72,1.58,1.5,2.36,2.25-.03.41.26.58.55.74.03.14-.09.35.18.37.06.06.12.12.18.18s.12.12.18.18c.04.14.05.32.14.4.48.45.97.9,1.49,1.31.48.38.96.77,1.5,1.06,1.01.55,1.95,1.2,2.95,1.77,1.15.65,2.24,1.39,3.44,1.94.21.1.38.27.58.38.85.45,1.66.99,2.63,1.32.02-.7.41-1.13.84-1.48.34.12.66.24,1.01.37.21-.12.42-.24.7-.41-.8-.46-1.49-.91-2.22-1.28-1.34-.69-2.63-1.49-4.04-2.04-1.14-.45-2.26-.94-3.43-1.3-1.3-.4-2.58-.88-3.81-1.48-.16-.08-.29-.21-.5-.14-.08-.24-.16-.49-.59-.33.23.15.4.26.59.33.14.09.23.26.37.33.54.26,1.1.51,1.59.81.55.33,1.21.42,1.68.86,1.1.23,2.05.85,3.08,1.26.87.35,1.71.76,2.57,1.14.16.07.32.11.48.19.83.41,1.71.72,2.45,1.29-.15,0-.34.05-.46,0-1.06-.56-2.19-.94-3.28-1.42-1.09-.48-2.18-.96-3.26-1.45-1.29-.59-2.57-1.2-3.88-1.74-.98-.4-1.79-1.05-2.62-1.67-.06-.06-.12-.12-.18-.18s-.12-.12-.18-.18c-.03-.14.09-.35-.18-.37.03-.41-.26-.58-.55-.74.02-.05.04-.11.08-.2.49.11.83.48,1.25.71.73.39,1.35,1,2.2,1.15.55.51,1.29.59,1.93.91.71.35,1.55.43,2.2.94,1.08,0,1.95.65,2.93.96.94.3,1.82.83,2.67,1.33,1,.59,2.05,1.11,2.9,1.93h.48c-.12-.95-.37-1.82-.89-2.6-.87-1.32-2.1-2.2-3.54-2.79-.4-.16-.83-.25-1.26-.3-.46-.05-.93.03-1.38-.02-.64-.08-1.31-.13-1.79-.69.32.05.64-.19.94.09.05.05.16.05.25.06.87.06,1.74.09,2.6.2.51.06,1,.26,1.49.4.75.21,1.33.73,1.9,1.19.71.58,1.38,1.25,1.78,2.11.25.56.5,1.11.45,1.76-.03.4,0,.8,0,1.27-.31.24-.45.73-1.01.86-.44-.17-.91-.36-1.47-.58-.06.05-.16.15-.26.25-.17.64.15,1.15.48,1.63.6.9,1.25,1.76,1.89,2.64.53.73.76,1.47.4,2.37-.28.71-.47,1.46-.38,2.24.02.21.17.47.1.63-.13.29.2.44.11.72-.06.18.11.43.16.66.15.68.3,1.37.43,1.98-.2.3-.39.46-.66.38-.6-.19-1.2-.38-1.77-.62-1.24-.51-2.46-1.05-3.67-1.62-1.66-.78-3.19-1.75-4.61-2.92-.68-.56-1.28-1.2-1.93-1.78-.7-.62-1.11-1.44-1.62-2.19-.65-.96-.96-2.06-1.33-3.21-.12-.01-.26-.02-.45-.04-.37-.41-.89-.75-1.13-1.33-.05-.13-.04-.29-.03-.43,0-.03.09-.05.17-.09.31.44.62.88,1.01,1.42.17-.59-.1-.99-.2-1.4-.21-.84-.36-1.69-.64-2.5-.44-1.25-.52-2.59-1.03-3.82-.05-.13-.06-.29-.06-.43-.01-.58-.14-1.1-.59-1.52-.21-.2-.31-.53-.54-.69-.31-.21-.49-.6-.91-.66-.06-.06-.12-.12-.18-.18-.06-.06-.12-.12-.19-.18,0,0,.02-.01.03-.03-.04-.05-.09-.1-.13-.15-.02.02-.04.04-.06.06.05.04.1.09.16.12.07.05.13.11.19.18.06.06.12.12.18.18.02.11,0,.27.07.34.83.79,1.17,1.85,1.59,2.86.11.26.21.53.27.69.2.86.37,1.63.55,2.39.01.05.1.09.1.14.08.92.15,1.84.06,2.87.03-.15.05-.31.08-.46-.11.08-.21.16-.32.23.09-.67-.2-1.27-.21-1.93,0-.59-.32-1.16-.42-1.75-.19-1.21-.84-2.24-1.24-3.37-.17-.48-.53-.9-.87-1.3-.7-.83-1.53-1.54-2.46-2.08-.35-.2-.78-.41-1.23-.24.45.36.91.71,1.35,1.07.45.37.69.87.82,1.41.06.24.17.34.38.44.81.37,1.33,1,1.73,1.8.58,1.14,1.01,2.3,1.24,3.56.05.25.09.53.19.75.12.26.17.5.16.77-.02.35.05.69-.16,1.05-.17.28,0,.67-.15,1.04-.2.47-.26,1.04-.22,1.56.07.98-.33,1.91-.21,2.75.11.28.17.44.26.68-.11.12-.23.25-.31.33-.17-.07-.25-.07-.28-.11-.66-1.01-1.55-1.81-2.44-2.57-.75-.64-1.68-1.08-2.7-1.27-.38-.07-.75-.13-1.13-.16-.52-.05-1-.24-1.43-.55-.61-.44-1.24-.84-1.97-1.04-.16-.04-.33-.05-.49-.08.38.67.72,1.3,1.08,1.91.34.6.47,1.28.73,1.92.05.13,0,.3,0,.46,0,1.08.04,2.16-.01,3.23-.04.96-.31,1.89-.61,2.79-.31.94-.71,1.86-1.07,2.8h-.44c-.16-.26-.35-.49-.45-.75-.27-.67-.19-1.62-.05-2.44.11-.69.29-1.38.46-2.04.18-.66-.01-1.35.29-2,.11-.23.18-.66-.12-.95-.05-.05-.05-.17-.04-.26.12-.79-.11-1.56-.23-2.32-.12-.77-.31-1.57-.68-2.29-.1-.2-.17-.35-.39-.43-.83-.31-1.38-.98-1.75-1.7-.36-.7-.68-1.47-.65-2.31.01-.4.01-.8,0-1.2,0-.14-.07-.27-.13-.46.03-.04.11-.12.19-.21.04.02.09.04.13.06.18.11.18.29.19.48.05.93.21,1.84.53,2.73.35.95.8,1.74,1.8,2.09.05.02.09.08.16.15.43,0,.89.02,1.35,0,.83-.05,1.5.3,2.05.84.49.48,1.05.71,1.7.83.6.11,1.19.25,1.79.36.93.17,1.68.71,2.45,1.21.2.13.37.3.56.44,0,0-.02.01-.03.03.04.05.09.1.13.15.02-.02.04-.04.06-.06-.05-.04-.1-.09-.16-.12-.05-.51-.41-.91-.68-1.27-.82-1.1-1.52-2.27-2.29-3.4-.66-.97-1.43-1.86-2.05-2.85-.61-.98-1.46-1.76-2.04-2.75-.57-.36-.85-1.04-1.46-1.35,0,0,.02-.01.03-.03-.04-.05-.09-.1-.13-.15-.02.02-.04.04-.06.06.05.04.1.09.16.12.08.55.46.97.66,1.47.5,1.3,1.15,2.53,1.58,3.86.23.73.6,1.41.88,2.12.2.5.36,1.01.55,1.54-.04.01-.12.04-.22.08-.58-1.58-1.26-3.1-1.79-4.69-.24-.72-.81-1.31-.93-2.1-.56-.57-.71-1.39-1.24-1.97-.05-.06-.15-.09-.29-.13-.02,0,.03,0,.09,0l-.07-.36s-.08.01-.12.02c.01.12.02.24.1.35.26.57.41,1.15.63,1.7.53,1.3.88,2.66,1.29,3.99.15.5.44.96.37,1.51-.33-.4-.38-.91-.55-1.38-.53-1.47-1.12-2.93-1.49-4.45-.71-1.12-1.05-2.46-2.08-3.38-.19-.17-.29-.44-.47-.63-.09-.09-.26-.09-.41-.13,0,0,.02-.01.03-.03-.04-.05-.09-.1-.13-.15-.02.02-.04.04-.06.06.05.04.1.09.16.12.05.13.07.27.14.4.82,1.44,1.4,2.99,2.05,4.5.4.93.68,1.94.96,2.92.08.27.2.53.37.94v.66c-.42-.45-.51-1.05-.73-1.58-.35-.87-.65-1.76-1-2.64-.62-1.59-1.29-3.16-2.09-4.68-.12-.23-.04-.53-.32-.71-.1-.06-.11-.27-.21-.36-.1-.09-.25-.11-.27-.12-.15.09-.28.16-.42.24.6.81.98,1.68,1.3,2.58-.04.01-.12.04-.2.07-.49-.85-.97-1.7-1.5-2.62-.47.08-.99.16-1.55.25-.05.05-.13.13-.18.19.36.86.7,1.7,1.05,2.52.34-.12.6-.22.92-.33.27.21.59.47.89.7.05.47.39.85.2,1.29-.47.08-.44-.37-.48-.51-.09-.36-.19-.67-.48-.93h-.6c-.51.76-.54.99-.25,1.71-.04.04-.07.1-.12.12-.05.02-.12,0-.25-.02,0-.17.02-.35,0-.52-.03-.13-.12-.26-.18-.38.23-.36.25-.66.03-1.07-.38-.7-.64-1.46-.94-2.2-.04-.1,0-.24,0-.37-.57-.23-1.22.14-1.75-.22-.14.07-.29.15-.4.2.16.58.34,1.15.48,1.72.19.75.34,1.52.57,2.26.1.32.11.64.19.94.08.28.16.55.17.85.02.32.1.63.18.94.23.99.47,1.98.58,3,.04.36.18.73.15,1.09.13.03.18.04.26.05.1-.22.19-.45.31-.67.1-.18.19-.44.34-.49.6-.21.68-.73.83-1.22.16-.49.1-.85-.02-1.56-.1-.58-.19-1.14-.46-1.68.1-.05.17-.09.28-.15.4.7.69,1.41.67,2.21-.01.35.23.7.02,1.05-.01.03.11.13.17.2-.29.19-.13.49-.2.79-.91.74-1.7,1.57-1.12,2.94-.09.08-.17.17-.23.22-.28-.06-.54-.12-.79-.16-.57-.09-1.14-.17-1.7-.36-.73-.26-1.49-.36-2.2-.73-1.03-.53-1.84-1.16-2.11-2.35-.05-.24-.26-.46-.45-.64-.3-.29-.47-.66-.67-1.02-.17-.31-.14-.53-.05-.83.08-.27.14-.62.03-.85-.18-.36-.19-.77-.08-1.05.11-.27.24-.57.12-.76-.28-.44-.08-1.09-.7-1.41-.12.29-.24.58-.37.89.31.72.03,1.61.61,2.32-.14.14-.25.24-.4.38-.13-.1-.32-.17-.34-.28-.17-.64-.36-1.29-.42-1.95-.09-.95-.04-.96.4-2.02.17-.08.32-.16.49-.24.89.13.89,1.03,1.27,1.54.21.85-.16,1.63-.15,2.51.12.09.27.19.42.3-.15.33-.35.61-.38.91-.03.3.11.62.18.96.47.45.96.92,1.22,1.58.37.92,1.15,1.44,2,1.78.63.25,1.26.54,1.94.68.53.11,1.04.41,1.64.24,0-.13.01-.25.02-.42-.2-.14-.42-.31-.47-.34-.19-.96-.25-1.74-.5-2.44-.24-.66-.28-1.35-.5-2.01-.23-.71-.39-1.44-.56-2.17-.16-.7-.33-1.4-.54-2.09-.14-.44-.13-.93-.22-1.39-.07-.37-.16-.73-.26-1.09-.02-.08-.12-.13-.26-.27.02.46-.16.84.11,1.25.11.17.01.48.05.72.03.23.14.44.17.66.16,1.03.39,2.04.68,3.04.13.46.31.95.26,1.47-.03.37.05.77.18,1.12.28.8.16,1.68.53,2.46.1.22.02.52-.05.79-.16-.8-.34-1.59-.52-2.38-.23-1.04-.24-2.13-.71-3.12.06-.54-.12-1.06-.31-1.53-.18-.46-.24-.94-.4-1.4-.2-.57-.15-1.23-.22-1.85-.03-.25-.07-.5-.11-.77.03-.06.09-.16.18-.33-.5-.23-.96-.44-1.43-.65-.2.32-.33.62-.32.99.03.71-.11,1.44.04,2.12.14.6.14,1.19.14,1.78,0,.5-.23.97-.18,1.5.05.51,0,1.03-.11,1.56-.02-.15-.06-.29-.06-.44,0-1.39.01-2.77-.01-4.16,0-.56.06-1.12-.15-1.69-.21-.57.19-1.13.22-1.72-.21-.21-.49-.49-.8-.8-.05.15-.16.36-.18.57-.08.77-.11,1.55-.2,2.32-.03.31-.16.61-.25.93h-.27c.12-.73.33-1.44.32-2.14-.02-.71.44-1.38.13-2.14-.59.22-.82.81-1.36,1.06-.52.24-.92.73-1.43,1.01-.51.27-.95.59-1.34,1-.04,1.36-.33,2.7-.22,4.06-.31,1.06-.13,2.15-.21,3.35-.27-.45-.12-.83-.15-1.18-.03-.4,0-.8,0-1.2v-1.29c0-.4-.1-.84.03-1.19.14-.39.15-.75.16-1.13,0-.4,0-.8,0-1.24-.16.05-.31.09-.45.14-.18.06-.02.45-.39.38-.14-.03-.31.13-.43.19-.09.52.03.99-.18,1.47-.17.38.07.88-.2,1.3-.07.11,0,.3-.01.45-.08.77-.16,1.53-.28,2.29-.21-1.72-.01-3.42.31-5.11-.13-.03-.19-.05-.25-.06-.06,0-.15-.03-.18,0-.38.44-.99.47-1.45.79,0,.38.05.75,0,1.11-.16,1.03.29,1.89.75,2.74.07.13.18.24.28.35.19.2.39.4.59.59.51.48.98,1.01,1.54,1.43.5.37,1.09.62,1.62.92.32-.35.65-.71.97-1.06.55-.82.24-1.84.4-2.8.11,0,.17,0,.23,0,.22.33.31.68.28,1.08-.02.37-.05.75,0,1.11.08.58-.19,1.05-.47,1.47-.27.41-.65.78-1.24.79-.12,0-.24.13-.42.23-.06-.14-.1-.24-.14-.34-2.21-1.17-3.9-2.86-4.96-5.28.06-.64-.1-1.4.12-2.2-.29,0-.65.01-1.01,0-.32-.01-.63-.06-1.11-.11-.19.1-.55.29-.91.49.06.18.14.33.14.48.05,1.22.69,2.15,1.61,2.82.85.62,1.69,1.26,2.53,1.88.49.36.83.93,1.17,1.44.08.18.17.36.23.55.26.8.19,1.78.03,2.9-.07.51-.21.95-.39,1.42-.23.59-.58,1.12-.89,1.66-.23.4-.58.74-.93,1.17-.1-.12-.16-.2-.22-.28.03,0,.08,0,.09,0,.34-.8.68-1.6,1.02-2.4.12-.12.31-.21.36-.35.21-.59.48-1.18.38-1.67-.88-.82-1.63-1.53-2.41-2.22-.74-.65-1.43-1.36-2.3-1.87-.86-.5-1.65-1.14-2.58-1.48-.12.12-.21.2-.26.25.56.64,1.09,1.3,1.66,1.91,1.27,1.36,2.56,2.69,3.84,4.04.02.02,0,.06,0,.09-.14-.04-.3-.05-.4-.14-.26-.22-.48-.47-.72-.71-.26-.26-.49-.56-.79-.77-.26-.18-.23-.63-.63-.65-.33-.72-1.01-1.11-1.5-1.68-.51-.59-1.04-1.17-1.56-1.75-.03-.03-.11-.03-.24-.05-.1.17-.21.36-.31.51.62.92,1.16,1.78,1.76,2.59.7.95,1.45,1.86,2.21,2.77.21.25.37.52.51.8h-.22c-.49-.75-1.2-1.24-1.75-1.89-.53-.63-1.06-1.27-1.53-1.95-.46-.66-.83-1.37-1.26-2.09-.65.21-1.1.66-1.27,1.17.26,2.3,1.27,4.12,2.48,5.89.15-.63.49-1.07,1.17-1.31h.83s.08.11.13.13c.8.24,1.24.92,1.8,1.45.05.04,0,.18,0,.27-.25.07-.39-.1-.54-.26-.45-.47-.99-.81-1.53-1.04-.58.08-.92.42-1.04.87-.07.26-.23.21-.43.35.06.16.09.36.2.51.65.97,1.28,1.96,2.05,2.85.02.03-.01.11-.04.28-.17-.17-.32-.29-.44-.44-.11-.13-.16-.31-.27-.44-.14-.17-.31-.3-.45-.46-.11-.13-.18-.29-.28-.44-.12-.17-.26-.32-.37-.5-.7-1.09-1.46-2.16-2.07-3.3-.43-.8-.97-1.56-1.19-2.46-.08-.34-.07-.7-.12-1.13-.36.44-.59.85-.69,1.33-.05.25-.17.5-.17.75,0,.22.14.44.16.66.03.24,0,.49.09.71.1.3.23.59.28.89.07.46.51.81.38,1.32.61.81.74,1.85,1.34,2.68.35.48.56,1.06.88,1.57.65,1.03,1.34,2.04,2.05,3.03.56.78,1.13,1.55,1.68,2.34.67.96,1.57,1.76,2.39,2.61.08.09.28.07.49.12.02-.26.03-.48.05-.68-.42-.42-.81-.82-1.21-1.21-.87-.87-1.62-1.85-2.44-2.77-.63-.72-1.22-1.47-1.79-2.23-.9-1.2-1.67-2.48-2.35-3.82-.53-1.05-.83-2.18-1.23-3.27-.13-.36-.14-.8-.23-1.2-.07-.28-.11-.57-.17-.87.05-.02.13-.05.27-.11.16.44.33.85.45,1.28.35,1.3.88,2.52,1.38,3.77.56,1.4,1.36,2.65,2.15,3.91.56.89,1.27,1.69,1.92,2.53.07.09.19.13.28.2,0,.5.41.68.76.89-.01,0-.05.05-.08.09.78.85,1.56,1.71,2.38,2.61.13-.36.22-.62.29-.82-.48-.37-.89-.69-1.31-1-.41-.31-.83-.61-1.28-.88-.03-.47-.43-.65-.76-.89,0-.09.04-.21,0-.27-.23-.36-.48-.72-.68-1-.17-.47.16-.94-.23-1.23.07-.28.15-.49.17-.72.07-.65.38-1.15.84-1.58.05-.05.18,0,.3-.08-.04.19-.04.32-.1.42-.35.62-.46,1.29-.51,2.01-.1,1.38.73,2.27,1.56,3.13.5.52,1.19.86,1.72,1.38.09.09.23.13.39.22.13-.68-.13-1.21-.27-1.77-.22-.89-.6-1.72-.91-2.57-.1-.27-.12-.58-.27-.81-.47-.68-.99-1.32-1.61-2.02-.31-.31-.59-.68-1.06-.88-.18-.08-.31-.3-.46-.44-.28-.27-.51-.58-.9-.73-.11-.04-.16-.22-.3-.44.22.01.37-.03.42.03.51.65,1.28.95,1.92,1.42,1.22.9,2.23,1.97,2.86,3.36.29.65.47,1.35.73,2.01.26.64.37,1.32.63,1.96.09.21.01.49.01.74-.11.11-.22.22-.33.32-.09.65-.34,1.27-.23,1.94.08.47.25.91.19,1.4-.04.29-.06.56-.17.85-.21.59-.5,1.15-.71,1.75.03.75-.25,1.54.1,2.14.29.23.46.36.77.61-.24.1-.39.15-.54.21-.46.23-.86-.13-1.28-.35-.71-.37-1.44-.74-2.07-1.23-.63-.49-1.33-.87-1.92-1.43-.64-.61-1.38-1.12-2.09-1.69-.65-.07-1.23-.56-1.91-.37-.85-.52-1.4-1.26-1.79-2.11-.24-.52-.41-1.09-.41-1.68,0-.58,0-1.16-.05-1.75-.5,1.43-1.15,2.77-2.09,4.02h-.55c-.42-.66-.81-1.34-1.27-1.97-.47-.66-.72-1.43-1.04-2.16-.15-.34-.26-.69-.37-1.05-.51-1.57-.43-2,.35-3.4-.38-1.32-.12-2.62.04-3.95-.34.13-.62.28-.91.33-.71.13-1.28.48-1.69,1.03-.71.94-1.13,1.2-2.17,1.2-.09,0-.18,0-.3,0-.22-.14-.46-.3-.72-.47,1.18-1.4,2.17-2.87,3.12-4.38.74-1.16,1.48-2.33,2.14-3.54.45-.84.79-1.71,1.18-2.56.39-.82.64-1.71.92-2.57.07-.22.05-.47.18-.94-.04-.09-.11-.06-.1-.03.01.09.05.17.08.26.03-.11.06-.22.02-.23-.42.51-.4.93-.53,1.29-.47,1.29-1.06,2.52-1.7,3.72-.79,1.48-1.62,2.94-2.72,4.23-.49.57-.86,1.25-1.32,1.84-.24.3-.57.53-.87.79.02-.11,0-.27.07-.34.9-.9,1.56-1.99,2.27-3.04.56-.83,1.11-1.67,1.56-2.58.37-.74.83-1.43,1.19-2.19.53-1.13.95-2.32,1.56-3.42.09-.16.08-.38.11-.6-2.53-1.2-2.57-1.55-2.88-2.73-.24-.23-.48-.47-.74-.73v-.89c-.18.08-.32.11-.41.2-.38.36-.74.73-1.11,1.11-.99,1-2.07,1.88-3.21,2.71-.85.62-1.71,1.22-2.6,1.78-1.11.71-2.25,1.39-3.44,1.94-.64.3-1.29.61-1.96.82-.11.03-.2.1-.35.18h-.59c.22-.3.62-.21.88-.42.28-.23.64-.25.94-.4,1.05-.52,2.1-1.04,3.1-1.64.42-.26.91-.42,1.27-.72.92-.78,1.98-1.36,2.93-2.11,1.1-.87,2.2-1.72,3.22-2.69.45-.44.87-.91,1.39-1.3.33-.25.68-.68.68-1.24-.48.39-.97.72-1.38,1.13-.85.85-1.79,1.59-2.71,2.35-1.05.86-2.11,1.7-3.23,2.47-.7.48-1.37.99-2.09,1.42-.98.58-1.99,1.12-3.01,1.64-1.04.53-2.13.95-3.31,1.24-.04.12-.09.26-.14.39-.05.14-.09.28-.15.44h.33c-.11.36-.41.1-.68.21-.54.47-.77,1.14-.8,1.9-.03.7.13,1.3.52,1.92.26.41.61.54.96.66.64.22,1.17.54,1.61,1.11,1.06-.6,2.13-1.16,3.15-1.79,1.01-.62,1.99-1.3,2.97-1.97.6-.41,1.2-.83,1.77-1.29,1.38-1.11,2.81-2.16,4.02-3.46.25-.27.74-.29.77-.77.4-.06.58-.41.83-.66.33-.34.61-.73.93-1.09.07-.08.19-.1.39-.2-.03.21,0,.34-.06.41-.75.83-1.48,1.7-2.29,2.46-.78.74-1.56,1.48-2.44,2.11-.49.35-.9.79-1.37,1.17-1.09.89-2.21,1.73-3.42,2.44-.77.45-1.5.97-2.28,1.41-.77.43-1.58.78-2.37,1.18-.13.07-.24.17-.33.23.24.2.48.39.79.63-.26.12-.44.21-.58.28-.85-.51-1.52-1.16-2.38-1.57-.81-.39-1.04-.76-1.71-1.88v-2.26c.33-.46.7-.99,1.11-1.57-.21-.23-.45-.49-.71-.77-.05-.32-.1-.66-.17-1.14.23-.35.24-.95.44-1.49.21-.56.51-1.04.84-1.49.34-.46.55-1.08,1.23-1.28-4.68-.56-9.1-1.87-13.27-4.46.32-.02.49-.08.63-.03.35.12.68.29,1.01.45,1.68.79,3.38,1.52,5.17,2,.89.24,1.72.73,2.69.67.19-.01.38.14.57.17.96.17,1.94.25,2.89.41.88.15,1.74.11,2.61.13.37,0,.75-.14,1.12-.17.4-.03.83.09,1.19-.03.91-.28,1.87-.33,2.77-.67-.74,0-1.48-.2-2.24.13,0,0-.03.01-.05,0-.07-.06-.14-.12-.23-.2-.35.13-.68.33-1.13.06-.3-.18-.78,0-1.18-.04-.5-.05-1.01.12-1.52-.13-.41-.2-.93.06-1.39-.21-.25-.14-.65.05-.93-.21-1.06.1-1.99-.39-2.97-.65-.94-.25-1.87-.53-2.79-.84-.18-.06-.46-.08-.54-.35.6-.02,1.1.32,1.65.46.89.22,1.73.59,2.67.68.65.06,1.3.25,1.93.44.34.1.69-.04.96.11.29.16.56.16.85.17.67,0,1.38-.11,2.02.04.57.13,1.12.13,1.68.15.08,0,.16-.04.35-.09-.57-.16-1.04-.28-1.54-.3-.66-.03-1.29-.34-1.96-.35-.19-.35-.6-.04-.81-.26-.26-.26-.64.03-.91-.28-.16-.17-.54-.14-.82-.21-.06-.02-.1-.12-.15-.18.41-.13.76.11,1.12.2.81.21,1.62.42,2.45.57.66.12,1.34,0,1.95.19.58.17,1.13.08,1.69.15.88.12,1.71-.26,2.58-.33-.16-.02-.32-.04-.48-.04-.71,0-1.42-.04-2.12,0-1.21.09-2.31-.33-3.44-.62-.49-.13-.99-.28-1.45-.51-.46-.23-.91-.5-1.39-.64-.69-.21-1.35-.56-2.13-.46-.42.06-.85,0-1.3,0-.02.1-.04.18-.07.32-.32-.1-.67-.16-.97-.33-.9-.5-1.29-.64-2.19-.74-.19-.02-.38-.14-.57-.17-.36-.06-.67.02-1.56.38-.17-.08-.38-.18-.58-.28-.84-.42-1.69-.36-2.56-.06-.58.2-.74.68-.84,1.21-.21-.64,0-1.04.61-1.45.48-.31,1.03-.47,1.53-.51.71-.06,1.44.09,2.08.48.5-.31,1.03-.53,1.63-.18.02.01.06.03.08.02.67-.13,1.29.25,2.03.18.15-.16.34-.35.51-.57.15-.18.27-.38.42-.6-.11-.21-.23-.42-.35-.65.12-.22.2-.57.38-.64.41-.15.61-.53.99-.72.35-.17.74-.1,1.07-.32.3-.2.69-.27,1.04-.38.54-.17,1.09-.24,1.69-.31-.18-.11-.36-.22-.54-.33-.54-.3-1.05-.65-1.49-1.11-.22-.23-.48-.5-.77-.58-1-.27-1.73-1.01-2.73-1.36-.45.3-1.04.1-1.66.18-.28.55-.81.95-1.14,1.53-.16.28-.45.5-.7.73-.73.69-1.35,1.49-2.21,2.03-.22.14-.41.37-.65.44-.61.17-1.15.49-1.77.64-1.38.33-2.23.08-3.58-.4-.92-.33-1.8-.82-2.84-.74-.26.02-.53-.04-.77.17-.07.06-.29-.05-.52-.1.48-.37.91-.62,1.24-.96.47-.48.71-1.09.9-1.75.33-1.14.61-2.32,1.59-3.13.86-.71,1.8-1.23,2.9-1.47.5-.11,1-.23,1.5-.15,1.11.17,2.22.37,3.25.84.44.2.86.44,1.3.64.44.2.82.54,1.25.78.26.15.56.25,1,.44-.23-.41-.41-.55-.67-.7-.79-.45-1.51-1.01-2.21-1.59-.78-.64-1.51-1.31-2.19-2.05-.79-.86-1.57-1.73-2.28-2.66-.36-.48-.54-1.1-.46-1.74.07-.55.23-1.08.6-1.5.22-.25.48-.48.76-.77.34-.06.8-.04,1.12-.24.43-.26.84-.15,1.23-.13.38.02.77.35,1.14.32.49-.05.67.57,1.18.38.09-.62.41-1.11.96-1.47.51-.32,1.08-.42,1.72-.37-.14-.57-.62-.75-.86-1.11h-.55c-.59-.75-1.52-.78-2.41-.93-.35-.05-.69-.14-1.03-.18-.34-.03-.71.09-1.01-.03-.88-.34-1.8-.61-2.54-1.22-1.14-.94-2.52-1.34-3.91-1.71-.14-.04-.29,0-.48,0,0-.58.47-.67.77-.71.78-.11,1.52-.35,2.27-.54.46-.12,1-.13,1.46-.01.63.17,1.27.34,1.89.56.61.22,1.2.54,1.78.84.58.31,1.15.65,1.72.98.05.03.09.08.13.13,1.18,1.18,2.38,2.32,3.51,3.55.35.38.67.6,1.14.81.51.22.85.09,1.21-.13.35-.21.65-.49,1.01-.77-.77-.73-1.45-1.46-1.78-2.43-.21-.62-.49-1.22-.2-1.94.24-.59.05-1.22-.23-1.8-.01-.03-.05-.04-.06-.07q-.5-1.08.15-2.23v-1.09c-.78-.99-1.42-2.65-.94-4.17.16-.5.26-.98.55-1.44.21-.33.44-.52.75-.69.37-.19,1.08-.86,1.36-1.15.31-.32.57-.69,1.02-.87.31-.13.52-.13.83.01,1.45.64,2.79,1.47,4.12,2.31.43.27.74.73,1.12,1.09.17.17.37.3.59.48.09-.35.09-.77,0-1.15-.19-.94-.21-1,0-1.81.05-.2.03-.42.03-.63.02-1.17.41-2.2,1.13-3.14.31-.41.63-.79,1-1.15.24-.23.35-.52.47-.82.23-.63.47-1.24.97-1.73.38-.37.88-.55,1.33-.55.37,0,.8.09,1.19.21.24.08.48.18.79.29.63-.3,1.23-.91,2.16-.69.06.09.16.23.31.43-.27.05-.46.09-.64.13,0,.13,0,.22,4.05,8.57,3.91,7.86,3.81,7.57,3.71,7.29-.19-.54-.35-1.09-.59-1.6-.41-.91-.83-1.82-1.2-2.74-.63-1.57-1.45-3.04-2.22-4.53-.6-1.17-1.28-2.3-1.93-3.45-.37-.65-.74-1.3-1.11-1.94-.34-.58-.64-1.22-1.25-1.7-.24.08-.51.16-.9.29,1.1.72,1.71,1.72,2.33,2.66.86,1.3,1.53,2.74,2.24,4.14,1.02,2.01,2.08,4,2.96,6.07.19.44.37.89.55,1.34.19.48.36.96.56,1.43.17.4.32.82-3.16-7.26-3.87-8.07-3.64-7.91-3.51-7.7.63,1.03,1.22,2.08,1.86,3.11.63,1,1.11,2.08,1.79,3.05.21.3.3.68.47,1,.37.7.77,1.38,1.25,2.25-.08-1.11.48-1.71,1.13-2.31-.43-.89-.78-1.83-1.32-2.68-.23-.36-.52-.64-.91-.81-.26-.11-.54-.22-.76-.4-.76-.64-1.54-1.26-2.2-2.01-.23-.26-.38-.58-.57-.87-.13-.19-.27-.37-.5-.68.26.03.41,0,.49.07.21.18.51.37.54.59.05.4.47.19.59.49.09.24.37.4.57.6.83.79,1.8,1.4,2.76,2.03.23.15.46.28.81.48-.1-.22-.12-.34-.19-.41-.47-.51-.95-1-1.39-1.54-.45-.55-1.07-.95-1.62-1.4-.65-.54-1.4-.91-2.14-1.3-.11-.06-.18-.23-.22-.48.3.1.64.15.93.3.63.33,1.25.7,1.86,1.09.65.41,1.21.95,1.79,1.46.69.6,1.25,1.37,1.83,2.09.48.59.91,1.23,1.37,1.84.06-.06.11-.11.15-.15.35.11.43.35.26.66-.33.61-.8,1.1-1.42,1.44,1.51,2.57,2.42,5.37,3.02,8.34.49.64,1.35,1.08,1.65,2.08h-.41c-.06-.06-.12-.12-.18-.18s-.12-.12-.18-.18-.12-.12-.18-.18c-.06-.06-.12-.12-.19-.18,0,0,.02-.01.03-.03-.04-.05-.09-.1-.13-.15-.02.02-.04.04-.06.06.05.04.1.09.16.12.07.05.13.11.19.18s.12.12.18.18.12.12.18.18c.06.06.12.12.18.18.68.9,1.21,1.88,1.58,3.15.19-.97-.04-1.68-.35-2.37-.27-.6-.66-1.13-.89-1.76-.09-.26-.15-.5-.16-.66.12-.19.2-.32.26-.41.13.03.21.03.24.06.18.23.42.44.51.71.31.83.8,1.59.86,2.52.02.3.1.67.38.95.24.25.36.58.34.97-.03.52,0,1.05,0,1.5-.11.21-.19.37-.27.52h-.43c-.02-.21-.05-.44-.07-.7-.08-.02-.16-.03-.28-.06.1.49.2.95.3,1.46-.15.01-.31.03-.54.05.09-1.11-.46-1.88-1.18-2.58-.77-.76-1.52-1.54-2.46-2.09-.6-.35-1.21-.67-2.01-.86.22.33.38.57.57.86.77.02,1.36.54,1.97,1.06.6.52,1.09,1.09,1.45,2.03v.57c.83.28.99,1.04,1.38,1.7.12-.1.27-.23.45-.38.64.46.69,1.26,1.07,1.88.02-.81-.4-1.57-.3-2.41.59.05.63.56.88.84.12,1.05,0,2.02-.76,2.83-.18-.16-.47-.71-.51-.98-.08-.49-.3-.92-.8-1.52.13.39.19.59.25.79-.09.09-.18.18-.31.3-.58-.84-.86-1.88-1.78-2.5.06-.21.11-.39.18-.61-.3-.55-.7-1.09-1.18-1.58-.51-.51-1.06-.94-1.71-1.23-.25-.11-.36-.27-.4-.42-.61-.42-1.16-.8-1.79-1.24h-.71c-.15-.4-.34-.76-.43-1.14-.16-.68-.49-1.28-.73-1.92-.42-1.12-.94-2.2-1.42-3.29-.46-1.04-.92-2.08-1.37-3.13-.41-.94-.8-1.89-1.3-2.79-.85-1.52-1.68-3.04-2.8-4.39-.66-.8-1.44-1.47-2.13-2.28-.6.42-1,.96-1.34,1.55.37.37.74.74,1.11,1.1-.11-.02-.25,0-.34-.07-.3-.21-.58-.45-.95-.74-.03,1.03-.86,1.45-1.39,2.15.25.19.45.35.66.51.58.44,1.18.87,1.75,1.32.47.37.77.93,1.36,1.17.24.62.83.94,1.24,1.42.12.14.3.24.38.4.4.79,1.09,1.38,1.57,2.11.72,1.08,1.57,2.08,2.19,3.23.31.58.73,1.11,1.06,1.68.04.06.14.09.22.13.03.14-.09.35.18.37.03.14-.09.35.19.36,0,0-.02.01-.03.03.04.05.09.1.13.15.02-.02.04-.04.06-.06-.05-.04-.1-.09-.16-.12-.04-.13.08-.34-.19-.36-.03-.14.09-.35-.18-.37,0-.15.06-.36-.01-.45-.44-.55-.62-1.23-.93-1.84-.17-.33-.46-.57-.56-.98-.09-.38-.35-.71-.53-1.07-.32-.64-.68-1.26-1.01-1.89-.33-.63-.73-1.24-1.1-1.86-.59-1-1.29-1.93-1.94-2.89.05-.37-.52-.45-.39-.85ZM50.2,87.2s-.02.02-.04.04l.13.15s.04-.04.06-.06c-.05-.04-.1-.09-.17-.11-.06-.06-.12-.12-.18-.18-.06-.06-.12-.12-.18-.18-.74-.95-1.47-1.92-2.22-2.86-.67-.84-1.34-1.71-1.82-2.66-.88-1.75-1.93-3.44-2.33-5.39-.15-.74-.47-1.44-.47-2.21,0-.19-.13-.38-.17-.57-.04-.16-.04-.34-.06-.51-.16.53-.17,1.08-.33,1.57-.14.41-.01.9-.2,1.2-.26.43-.06.87-.23,1.29-.16.4-.09.89-.1,1.34-.01.43,0,.86,0,1.29,0,.16.03.31.05.46.1-.51.18-.99.64-1.29.21.1.39.18.58.27.08.82.04,1.66.16,2.5.13.93.47,1.73.98,2.46.29.41.83.56,1.33.71.09-.07.19-.13.27-.19.37.13.76.19,1.06.39.45.29.83.68,1.24,1.03.45.39.9.79,1.36,1.17.05.05.18,0,.27,0,.06.06.12.12.18.18s.12.12.2.17ZM87.33,46.19c.06-.06.12-.12.18-.18.06-.06.12-.12.18-.18.11-.02.25-.01.34-.07.32-.21.59-.5.93-.66,1.67-.8,3.27-1.74,5.03-2.34.46-.16.91-.33,1.33-.48.24-.21.46-.41.81-.71-.7.08-1.24.14-9.14,4.26.61-.53,1.17-1.06,1.78-1.52.6-.45,1.23-.87,1.88-1.24.64-.36,1.32-.66,2.01-.93.67-.26,1.41-.31,2.1-.65-.82-.4-1.67-.57-2.42-1-.32-.19-.82-.41-1.18-.18-.35.22-.7.07-1.01.19-.06.06-.12.1-.15.15-.05.1-.09.21-.1.33-.13.95-.47,1.81-1.21,2.44-.71.61-1.17,1.42-1.75,2.14-.04.05.02.16,7.39-3.79-.18.12-.34.31-.53.36-1.09.27-2.08.74-3.06,1.27-1.14.62-2.28,1.48-3.07,2.44-.06.06-.12.12-.18.18-.06.06-.12.12-.18.18-.06.06-.12.12-.18.18-.28.02-.16.23-.17.39-.01-.01-.02-.02-.04-.04-.05.04-.1.09-.15.13.02.02.04.04.06.06.04-.05.09-.1.11-.17.28-.02.16-.23.18-.37.06-.06.12-.12.18-.18ZM85.3,28.62c.06-.06.12-.12.15-.18h.32c.3-.3.62-.6.91-.91.28-.3.5-.66.8-.93.86-.73,1.78-1.38,2.61-2.14.59-.54,1.23-1.03,1.89-1.47.75-.49,1.44-1.13,2.37-1.34-.15-.06-.3-.08-.44-.05-.94.17-1.81.56-2.63.99-.71.39-1.41.87-1.96,1.53-.46.55-1,1.03-1.45,1.61-.73.93-1.57,1.76-2.39,2.7-.06.06-.12.12-.18.18-.06.06-.12.12-.18.18-.41-.03-.58.26-.74.55-.06.06-.12.12-.18.18-.29-.03-.48.08-.55.37-.14.03-.35-.09-.33.24l-.07-.11c-.36.17-.71.33-1.09.51.13.12.21.2.28.26.31-.23.6-.44.84-.72.14-.03.35.09.37-.18.29.03.48-.08.55-.37.06-.06.12-.12.18-.18.41.03.58-.26.74-.55.06-.06.12-.12.18-.18ZM26.73,18.25s-.02.02-.04.04c.04.05.09.1.13.15.02-.02.04-.04.06-.06-.05-.04-.1-.09-.17-.11-.06-.06-.12-.12-.18-.18-.06-.06-.12-.12-.18-.18s-.12-.12-.18-.18c-.06-.06-.12-.12-.18-.18-.06-.06-.12-.12-.07-.18-.93-.76-1.5-1.79-2.67-2.28v.5c.77.57,1.54,1.15,2.39,1.78-.02,0,.08,0,.17,0,.06.06.12.12.18.18.06.06.12.12.18.18.06.06.12.12.18.18.06.06.12.12.18.18s.12.12.2.17ZM44.42,74.46h-.16c.02.13.05.25.07.37l.12-.02c-.01-.12-.02-.24-.32-.34.05,0,.11,0,.16,0l-.07-.36s-.08.01-.12.02c.01.12.02.24.32.34ZM44.64,73.73c.03.14-.09.35.18.37,0,.12-.04.26,0,.37.34.81.67,1.63,1.04,2.43.71,1.51,1.49,2.97,2.44,4.35.65.95,1.23,1.93,2.06,2.74.33.32.66.64.97.98.09.1.09.27.14.4-.68-.65-1.39-1.29-2.04-1.97-.35-.36-.64-.77-.91-1.19-.65-1.02-1.46-1.94-1.9-3.09-.44-.37-.59-.93-.82-1.41-.23-.48-.64-.91-.61-1.5-.31-.19-.19-.67-.69-.82h.16c-.02-.13-.05-.25-.07-.37-.04,0-.08.01-.12.02.01.12.02.24.17.35,0,.12-.04.26,0,.37.38.98.73,1.98,1.18,2.93.71,1.48,1.53,2.9,2.49,4.24.79,1.11,1.58,2.22,2.53,3.2.52.53,1.04,1.05,1.57,1.57.06.06.11.14.2.26-.18,0-.27.03-.3,0-1.67-1.62-3.33-3.25-4.64-5.19-.7-1.03-1.34-2.08-1.93-3.17-.65-1.21-1.2-2.46-1.54-3.8-.16-.61-.47-1.17-.52-1.82,0-.03-.1-.04-.15-.07-.03-.29.08-.48.51-.56-.05,0-.11,0-.16,0,.02.12.05.24.07.36.04,0,.08-.01.12-.02-.01-.12-.02-.24-.17-.35.08-.57-.4-.93-.5-1.44-.06.59-.06,1.17-.05,1.75,0,.08.11.16.18.24-.07.69.21,1.32.37,1.96.35,1.38.93,2.68,1.47,3.99.25.61.66,1.14.97,1.71.28.52.61,1.05.96,1.53.76,1.05,1.59,2.07,2.46,3.03.93,1.02,1.93,1.97,2.85,2.89h.46c-.05-.41-.24-.86-.09-1.13.2-.37.08-.71.15-1.05.1-.13.2-.25.28-.38.09-.16.17-.33.22-.44-.06-.13-.1-.21-.13-.29h.29c.06-.18.12-.38.18-.56.26-.79.03-1.37-.67-1.76-.23-.13-.45-.28-.64-.46-.89-.86-1.7-1.77-2.44-2.77-.87-1.18-1.77-2.34-2.59-3.55-.7-1.03-1.35-2.08-2.03-3.13,0-.53-.44-.86-.61-1.32-.43-1.14-.96-2.25-1.16-3.46-.12,0-.18,0-.31.01.04.25-.04.47.08.75.36.83.72,1.68.97,2.55.22.72.6,1.36.8,2.08.21.73.8,1.32.91,2.11.61.61.78,1.47,1.28,2.15.62.84,1.16,1.75,1.8,2.57.68.87,1.43,1.69,2.14,2.54.08.1.09.27.14.4-.62-.43-1.07-1.03-1.54-1.61-.68-.85-1.4-1.68-2.01-2.59-.91-1.36-1.81-2.74-2.54-4.21-.24-.47-.38-.99-.75-1.39-.03-.14.09-.35-.18-.37-.03-.14.09-.35-.2-.35l.04-.04c-.04-.05-.09-.1-.13-.15-.02.02-.04.04-.06.06.05.04.1.09.17.11.03.14-.09.35.18.37ZM39.65,68.92c-.28.02-.16.23-.18.37-.12.12-.3.21-.36.35-.21.47-.41.94-.56,1.43-.26.85-.43,1.72-.37,2.62.05.73-.03,1.42-.44,2.04-.05.07-.11.15-.12.23-.09.51.05,1.97.27,2.57.17.45.46.87.56,1.33.11.53.49.9.7,1.38.23.52.65.94,1.03,1.47.64-.6.82-1.4,1.34-1.94-.08-.28-.2-.5-.2-.72-.02-.71.01-1.42-.01-2.13-.02-.72.33-1.41.19-2.14,0-.03-.01-.08,0-.09.26-.17.15-.43.19-.66.03-.23.15-.44.17-.66.07-.79.33-1.52.6-2.25.14-.37.27-.77.31-1.16.06-.59-.06-1.2.19-1.77.05-.12,0-.28-.02-.65-.75,1.72-1.45,3.2-1.91,4.8-.37,1.32-.79,2.61-.84,3.99,0,.09-.02.17-.05.25-.28.77-.06,1.57-.13,2.35.29.2.14.5.19.75.05.28.13.56.18.85,0,.04-.05.1-.11.2-.2-.58-.45-1.11-.43-1.69.05-1.27-.14-2.54.14-3.81.11-.5.16-1.04.31-1.54.16-.52.22-1.06.43-1.58.31-.77.42-1.62.8-2.35.48-.94.81-1.96,1.41-2.84.2-.3.68-.6.37-1.1.64-.43.78-1.07,1.02-1.85-.55.6-.99,1.08-1.43,1.56-.04.04-.08.09-.11.14-.72,1.17-1.55,2.29-1.98,3.61-.27.81-.55,1.62-.78,2.45-.25.89-.35,1.82-.54,2.73-.16.76-.14,1.55-.21,2.32-.01.14-.03.27-.04.4-.36-1.15.14-2.27.05-3.41,0-.02.05-.04.06-.07.11-.45.23-.9.31-1.35.1-.57.22-1.13.36-1.7.11-.45.24-.91.41-1.31.56-1.35,1.07-2.75,2.12-3.84.07-.07.05-.22-.02-.43l.09.1c.11,0,.22-.02.37-.03,0-.13-.02-.23-.02-.35-.17.11-.3.2-.34.37-.11.02-.26,0-.33.07-1.31,1.23-2.43,2.59-2.9,4.39-.11-.03-.19-.05-.3-.09.09-.44.52-.75.39-1.23.28-.02.16-.23.17-.39.01.01.02.02.04.04.05-.04.1-.09.15-.13-.02-.02-.04-.04-.06-.06-.04.05-.09.1-.11.17ZM92.88,69.11c.06.06.12.12.12.22.14.24.26.51.44.73.6.71.91,1.66,1.82,2.09.09.04.16.17.2.28.15.44.45.76.78,1.06.65.59,1.3,1.17,1.94,1.76.05.04.08.09.13.13,1.19.83,2.38,1.66,3.59,2.47.15.1.36.1.5.14-.19-.83-.37-1.61-.57-2.47-1.6-.67-3.04-1.73-4.53-2.71-1.52-1-2.81-2.29-4.24-3.51-.06-.06-.12-.12-.33-.18h.16c-.02-.13-.05-.25-.07-.37-.04,0-.08.01-.12.02.01.12.02.24.17.35ZM89.16,62.47s.02-.02.04-.04c-.04-.05-.09-.1-.13-.15-.02.02-.04.04-.06.06.05.04.1.09.17.11.03.14-.09.35.11.17.08.32.09.44.15.54.34.6.8,1.16,1.02,1.8.35,1.04,1.04,1.85,1.75,2.59,1.11,1.17,2.21,2.35,3.48,3.37,1.06.85,2.12,1.7,3.24,2.45.96.65,1.87,1.39,2.95,1.77.21-.96.42-1.89.63-2.83-.13-.09-.25-.2-.38-.25-.21-.08-.48-.08-.65-.21-.66-.52-1.47-.81-2.15-1.29-.76-.54-1.59-.99-2.3-1.62-.42-.38-.82-.81-1.29-1.12-.94-.63-1.76-1.4-2.63-2.11-.79-.65-1.52-1.39-2.29-2.08-.07-.06-.19-.06-.42-.13,1.14,1.43,2.21,2.71,3.43,3.87,1.23,1.17,2.57,2.21,3.96,3.18,1.3.91,2.68,1.74,4.17,2.38-.04.09-.08.17-.12.25-.67-.25-1.36-.39-1.85-.94-1.33-.61-2.51-1.42-3.66-2.33-1.15-.91-2.32-1.78-3.34-2.84-.48-.5-.89-1.06-1.38-1.55-.65-.66-1.18-1.4-1.69-2.17-.14-.21-.33-.4-.55-.55-.03-.14.09-.35-.2-.35ZM30.97,19.94c-.06-.06-.12-.12-.18-.18.03-.41-.26-.58-.55-.74.03-.41-.26-.58-.55-.74-.02-.11-.01-.25-.07-.34-.28-.44-.58-.86-.85-1.3-.4-.63-.79-1.26-1.2-1.92-.09.65-.08.79.28,1.23.13.15.21.28.18.48-.06.05-.12.09-.18.14.06.08.12.15.18.23-.03.29.08.48.31.52.46.54.19.95-.08,1.4-.16.26-.18.6-.25.89.44.58.81,1.21,1.31,1.69,1.11,1.08,2.09,2.29,3.36,3.21.88.64,2.13,1.41,3.28,1.86v-1.07c-1.49-1.06-2.82-2.37-4.15-3.7-1.29-1.3-2.19-2.9-3.41-4.25.03-.29-.08-.48-.37-.55,0-.12,0-.25,0-.37.18.18.37.35.55.54.4.41.55,1.04,1.11,1.31-.03.41.26.58.55.74-.03.41.26.58.55.74.06.06.12.12.33.18-.05,0-.11,0-.16,0l.07.36s.08-.01.12-.02c-.01-.12-.02-.24-.17-.35ZM22.14,14.69c.06.28.14.52.57.37-.23-.15-.4-.26-.57-.34-.08-.08-.15-.18-.24-.24-.54-.31-1.09-.6-1.63-.9-.11-.06-.23-.08-.54-.18.76.8,1.6,1.01,2.42,1.28ZM22.11,14s-.02.02-.04.04c.04.05.09.1.13.15.02-.02.04-.04.06-.06-.05-.04-.1-.09-.08,0-.25-.62-.53-1.05-.89-1.38-.37.14-.71.27-1.1.41.66.32,1.26.61,1.91.83ZM65.87,51.34q-.21-.17-.52,0c.21,0,.38,0,.34.06.55.14.92.23,1.29.33.38.11.75.26,1.14.36.42.11.87.12,1.27.28.42.17.83.03,1.12-.04.14-.04.27-.08.56-.16-.94-.1-1.64-.17-2.35-.26-.08,0-.15-.09-.23-.1-.86-.14-1.67-.56-2.6-.48ZM27.18,39.31c.13.15.17.21.2.21.09-.01.17-.05.26-.08-.11-.03-.22-.06-.21.07,1.15.45,2.2.43,3.16.74.38.12,3.89-.02,4.27-.11-.02-.08-.05-.16-.09-.3-.39.07-.75.14-1.06.19-.21-.06-.37-.14-.53-.14-.95-.01-1.9,0-2.85,0-.18,0-.44.08-.54-.01-.33-.3-.73-.04-1.03-.19-.38-.19-.75-.15-1.58-.38ZM94.24,71.83c-.11-.17-.22-.34-.37-.57-.15.43.09.51.3.62.09.3.09.67.27.89.42.5.55,1.14.9,1.65.14.21.09.4.08.63-.31-.16-.37-.49-.52-.76-.38-.7-.83-1.39-1.08-2.14-.27-.79-.97-1.38-1.01-2.26,0-.02-.05-.04-.06-.07-.56-.84-1.11-1.68-1.72-2.6-.07.93.16,1.72.34,2.52.09.4.2.77.38,1.14.19.38.25.84.49,1.18.34.48.58,1,.8,1.52.17.4.43.73.76.97.5.37,1.05.68,1.62,1.04,0-.19,0-.33.03-.57.43.08.3.51.44.74.46.26.89.51,1.41.81v-.45c.06.08.13.15.18.24.08.15.13.41.23.43.33.06.56.31.83.42.61.23,1.24.39,1.79.75.47-.09.75.42,1.23.36-.01.01-.02.02-.04.04.04.05.09.1.13.15.02-.02.04-.04.06-.06-.05-.04-.1-.09-.17-.11-.12-.12-.21-.27-.35-.36-.43-.29-.93-.5-1.3-.85-.9-.84-1.99-1.47-2.8-2.41-.14-.16-.28-.33-.56-.24.01-.01.02-.02.04-.04-.04-.05-.09-.1-.13-.15-.02.02-.04.04-.06.06.05.04.1.09.17.11-.02.34.2.58.37.83s.39.49.37.83c-.07-.04-.18-.07-.22-.13-.43-.7-.85-1.41-1.26-2.13-.44-.76-.9-1.5-1.59-2.04ZM26.36,45.98l-.04.04c.04.05.09.1.13.15.02-.02.04-.04.06-.06-.05-.04-.1-.09-.12-.15-.49-.49-1-.97-1.48-1.49-.49-.53-.95-1.09-1.35-1.55-.5-.17-.88.09-1.49,0,.57.59.99,1.14,1.52,1.5.88.59,1.74,1.22,2.77,1.56ZM74.21,78.13c0-.12.03-.24,0-.34-.3-1.06-.25-1.97.04-2.88.02-.08.2-.1.15-.25-.13-.4.09-.77.2-1.12.2-.62.28-1.26.32-1.89.04-.59-.13-1.2-.2-1.8-.14.49-.19.98-.13,1.45.06.5-.2.93-.19,1.4,0,.48-.18.91-.27,1.37-.14.68-.36,1.34-.46,2.02-.11.71.13,1.39.73-1.26-.07.85-.13,1.71-.21,2.73.21-.25.36-.34.39-.46.42-1.66.98-3.3.93-5.05-.01-.43.02-.86,0-1.29-.03-.41-.06-.83-.19-1.21-.14-.41-.14-.9-.68-1.19.05,0,.11,0,.16,0l-.07-.36s-.08.01-.12.02c.01.12.02.24.17.35.02.18.03.35.07.52.09.39.27.77.29,1.16.11,1.59,0,2.55-.36,4.07-.3.15-.02.59-.55,4.01ZM5.57,25.45c.13.14.16.21.19.21.09-.01.17-.05.26-.08-.11-.03-.22-.06-.02.04.04.1.05.18.08.2.5.22.95.54,1.42.81.55.32,1.01.9,1.74.88.26.41.78-.03,1.06.32.72.03,1.42.41,2.18.18-1.25-.78-2.63-1.22-3.97-1.74-.42-.05-.84-.06-1.25-.32-.35-.21-.83-.22-1.71-.49ZM29.4,26.74c.13.15.17.21.2.21.09-.01.17-.05.26-.08-.11-.03-.22-.06-.1.01,1.63,1.16,3.15,2.24,4.71,3.35-.14-.81-.36-1.66.08-2.61-1.73.32-3.18-.34-5.15-.88ZM42.34,65.8c-.22-.02-.34-.03-.56-.05.75-.53,1.38-1.02,2.06-1.44,1.51-.92,1.57-.94,1.93-1.62-.49.1-.94.25-1.39.35-.57.13-1.14.33-1.66.65-.5.31-.9.67-1.14,1.19-.27.57-.58,1.14-.38,1.91.45-.24.7-.64,1.02-1.03.01.01.02.02.04.04.05-.04.1-.09.15-.13-.02-.02-.04-.04-.06-.06-.04.05-.09.1,0,.19ZM34.74,26.62c-.13-.14-.16-.21-.19-.21-.09.01-.17.05-.26.08.11.03.22.06.02-.04-.04-.1-.05-.18-.09-.2-.97-.39-1.75-1.06-2.48-1.76-.61-.59-1.24-1.15-1.72-1.87-.42-.64-.94-1.22-1.43-1.81-.09-.11-.17-.31-.39-.28.17,1.02.66,1.84,1.26,2.64.93,1.26,1.2,1.56,2.14,2.13.84.51,1.71.94,3.13,1.31ZM54.24,65.11c.09-.53-.36-.65-.55-.94-.23-.35-.48-.73-.81-.94-.83-.52-1.54-1.19-2.29-1.79-.77-.62-1.26-1.47-1.4-2.56-.29.69-.54,1.28-.81,1.91,2.16,1.12,4.03,2.67,5.88,4.26-.01.12-.02.23-.04.4-1.92-1.66-4.02-2.97-6.14-4.32-.12.17-.23.32-.31.43.38.26.7.52,1.05.71,1.31.7,2.48,1.58,3.52,2.63.67.68,1.34,1.35,2.03,2.02.09.09.23.13.43.23.04-.82-.32-1.44-.56-2.04ZM13.06,27.68s-.02.02-.04.04c.04.05.09.1.13.15.02-.02.04-.04.06-.06-.05-.04-.1-.09-.15-.12-.39-.38-.71-.79-1.15-1.12-.75-.56-1.61-.88-2.43-1.27-.71-.34-1.44-.64-2.26-.56-.15.02-.31.01-.46,0-.68-.07-1.05,0-1.65.29,1.35.38,2.7.74,4.04,1.17,1.34.42,2.61.98,3.92,1.48ZM23.39,17.9c.06.06.12.12.29.2.17.17.4.4.61.61,0-.01.07-.14.12-.25h.36c.56.51.9,1.15.85,1.94.46.78.74,1.02,2.59,2.28-.28-.92-.75-1.73-.77-2.65-.32-.41-.81-.66-.98-1.18-.91-.49-1.44-1.38-2.21-2.02-.25-.21-.52-.4-.85-.65,0,.74.45,1.15.73,1.69-.18.09-.36.18-.56.22-.06-.06-.12-.12-.07-.03-.37-.8-.82-1.38-.66-2.13-1.03-.66-2.02-1.29-3.06-1.95-.46.27-.93.55-1.46.86.2.12.34.21.5.28.57.26,1.22.41,1.69.78.65.51,1.38.88,2.01,1.41.27.22.55.42.86.59ZM90.31,70.94l-.04.04c.04.05.09.1.13.15.02-.02.04-.04.06-.06-.05-.04-.1-.09-.15-.11-.37-1.05-.77-2.08-1.12-3.14-.35-1.08-.73-2.16-1.09-3.24-.35-1.05-.65-2.12-1.13-3.27.18-.66-.56-1.3-.37-2.05-.15-.18-.27-.31-.37-.45-.11-.16-.1-.17-.43-.36.41.92.47,1.88.77,2.78.3.9.37,1.88.6,2.8.23.93.56,1.83.55,2.84.17.1.35.2.5.29.54,1.37,1.12,2.69,2.1,3.79ZM71.26,37.31c.15,0,.33.04.46,0,.37-.15.71-.38,1.08-.51.86-.29,1.69-.69,2.55-.98.61-.21,1.23-.5,1.78-.82.74-.44,1.55-.73,2.29-1.18.68-.42,1.42-.74,2.11-1.14.48-.28.92-.64,1.46-1.02-.74-.25-1.36-.47-1.95-.66-2.95,2.66-6.16,4.76-9.78,6.48,0-.06,0-.11,0-.17l-.54.07s0,.08.01.12c.18,0,.36-.02.54-.17ZM104.15,46.37s.01.08,0,.09c-1.08.57-2.27.91-3.31,1.57-.43-.17-.52.54-.95.37-.85.4-1.7.8-2.56,1.21.32.16.6.3.97.49.32-.06.72-.13,1.12-.22,1.4-.32,2.73-.84,3.92-1.67.6-.41,1.17-.86,1.8-1.23.61-.35,1.27-.62,2.02-.67-.05-.15-.08-.23-.1-.29-.76-.18-1.43.31-2.16.15.11-.43.57.01.76-.35-.14,0-.26-.02-.37-.02-.52,0-1.12-.16-1.55.04-.48.23-1.04-.08-1.44.33-1.06.17-2.76.71-3.67,1.18-1.18.62-2.34,1.25-3.55,1.9.47.06.9.12,1.41.18.44-.15,1.01-.28,1.51-.54,1.47-.76,3.05-1.27,4.54-1.97.51-.24,1-.58,1.61-.56ZM87.37,60.98h.16c-.02-.13-.05-.25-.07-.37-.04,0-.08.01-.12.02.01.12.02.24.14.36.1.42.18.85.3,1.27.24.79.57,1.55.72,2.38.16.81.61,1.52.74,2.38.12.8.63,1.53.68,2.38.59.69.58,1.69,1.22,2.36.18.18.13.57.29.79.16.23.58.32.66.54.12.36.37.3.7.56-.3-.57-.49-.96-.7-1.33-.93-1.71-1.58-3.5-1.44-5.49,0-.14,0-.31-.06-.44-.29-.62-.55-1.26-.92-1.83-.76-1.15-1.31-2.42-2.31-3.57ZM6.76,48.4c.02.05.05.15.06.15.4-.06.82-.06,1.18-.21,1.1-.46,2.15-1.03,3-1.89.49-.49.93-1.02,1.37-1.55.26-.31.47-.66.69-.97-.18-.42-.49.24-.65-.14-.21.25-.49.16-.75.17-.27,0-.54,0-.83,0-.22.45-.37.89-.63,1.26-.69.99-1.79,2.06-2.79,2.8-.06.04-.18,0-.27,0,.26-.29.47-.68.79-.85.42-.22.81-.53.98-.89.21-.45.72-.62.83-1.13.05-.24.31-.42.43-.65.08-.15.06-.35.11-.65-.15.15-.18.21-.23.23-.11.03-.23.05-.35.05-1.22,0-2.31.42-3.4.91-1.2.54-2.3,1.26-3.47,1.84-.29.14-.58.3-.9.46.22.13.38.31.51.3.85-.08,1.56.4,2.34.59,1.14.28,1.24.35,1.99.16ZM90.24,62.45c-.16-.14-.34-.29-.51-.44.02.3.2.45.58.39l-.08.12c.3.22.62.42.89.68,1.14,1.12,2.39,2.12,3.55,3.21,1.18,1.11,2.44,2.11,3.71,3.11.46.36.94.7,1.42,1.03.77.53,1.65.9,2.49,1.33.03.02.1-.03.14-.05-.06-.19-.11-.37-.17-.58-.87-1.2-1.91-2.31-2.48-3.68-.85-.43-1.63-.84-2.42-1.23-.79-.39-1.61-.73-2.38-1.15-.81-.44-1.57-.95-2.36-1.42-.76-.46-1.53-.9-2.37-1.3ZM36.33,70.59c.16.39.46.1.67.16,1.1-1.1,2.19-2.19,3.28-3.28.4-.07.42-.09.67-.43-.54-1.49.52-3.73,2.4-4.28v-2.8c.12-.11.2-.19.37-.35,0,.57.03,1.06,0,1.54-.03.49-.12.97-.2,1.56.79-.29,1.6-.17,2.24-.67,0-.44-.14-.94.03-1.28.24-.49.07-.93.17-1.43-.35,0-.65-.08-.88.02-.68.29-1.37.13-2.06.16-.58.03-1.17,0-1.76.01-.04,0-.09.07-.16.13.07.14.15.3.22.43-.07.15-.18.28-.18.41,0,.57-.23,1.1-.46,1.57-.83,1.69-1.48,3.46-2.34,5.13-.12.23-.16.6-.53.65.07-.47.37-.84.53-1.26.53-1.38,1.24-2.69,1.76-4.07.33-.88.7-1.75.87-2.65-.18-.21-.34-.39-.44-.51h-.85c-.05.38-.08.76-.17,1.13-.29,1.2-.72,2.35-1.23,3.46-.41.91-.9,1.78-1.39,2.65-.34.6-.74,1.17-1.14,1.74-.4.58-.84,1.13-1.25,1.7-.67.92-1.33,1.85-2.06,2.86.06.12.17.32.26.5.63-.03.94-.12,1.25-.48.39-.44.73-.92,1.11-1.38.15-.18.32-.34.54-.57h.46c.12-.15.21-.25.29-.35ZM84.01,63.01c-.2-.17-.42-.34-.61-.52-1.01-.99-1.99-2-3.17-2.81-1.12-.77-2.23-1.53-3.45-2.14-.23-.11-.53-.16-.68-.34-.3-.35-.73-.28-1.1-.45.07.17.16.33.3.39.67.33,1.01,1,1.45,1.52.54.64,1.05,1.33,1.56,2.01.64.84,1.18,1.74,1.83,2.57.48.62.92,1.27,1.34,1.93.38.59.78,1.15,1.17,1.73.42.61.84,1.23,1.32,1.93.18-1.7.65-3.24.79-4.78-.22-.32-.63-.44-.56-.86.1.06.19.11.36.21-.06-.85-.48-1.56-.56-2.35-1.23-1.24-3.79-3.03-5.75-4.15-1.62-.92-3.38-1.48-5.15-2.03-.1-.03-.23,0-.55,0,.57.39.97.65,1.37.93.15.1.27.35.4.35.67,0,1.22.33,1.79.58.73.31,1.47.62,2.15,1.02.68.39,1.26.95,1.94,1.34.74.42,1.13,1.24,1.92,1.58.49.77,1.19,1.35,1.81,2,.07.07.05.22.07.34ZM50.19,53.48c.63.7.82,1.57,1.31,2.3v1.29c1.08.13,1.87-.5,2.72-.9q.08-1.7-.51-3.14s.04-.1.06-.17h.23c.56.91.65,1.92.67,2.99.35-.26.63-.47.93-.68v-1.98c.51.51.23,1.16.4,1.77,1.3-.95,2.54-1.86,3.88-2.85-.72,0-1.3.03-1.88,0-.84-.05-1.65.12-2.42.39-.32.11-.62.2-.94.17-.47-.04-.93-.15-1.4-.17-.52-.03-1.04,0-1.57-.01-.05,0-.1-.04-.17-.07,0-.08.01-.16.02-.24.19-.05.35-.1.52-.13.45-.09.93-.43,1.34-.26.55.23,1.05.08,1.62.18.05-1.04-.62-1.61-1.17-2.24-1.79,1.11-2.46,1.12-4.34,1.36.05.28.15.56.14.83,0,.36.11.65.3.9.39-.19.74-.48,1.23-.23-.14.54-.69.58-1,1.02h-.51c-.14.16-.31.37-.42.5-.42.12-.74.22-1.08.32.4.46.73.94,1.15,1.3.41.35.93.56,1.38.87.16.11.25.33.39.53.17-.69-.06-1.27-.24-1.85-.17-.57-.44-1.11-.63-1.77ZM44.66,24.17s-.02.02-.04.04c.04.05.09.1.13.15.02-.02.04-.04.06-.06-.05-.04-.1-.09-.1-.15-.73-.66-1.27-1.53-2.41-1.64-.14-.17-.31-.37-.5-.6.27-.13.47-.23.66-.33.11.07.19.13.37.25-.06-.27-.06-.44-.13-.6-.43-.99-.86-1.98-1.3-2.97-.08-.18-.21-.35-.26-.54-.28-1.12-1.1-2-1.37-3.13-.6-.62-.81-1.46-1.19-2.19-.77-1.48-1.52-2.96-2.44-4.34-.52-.77-1.01-1.58-1.64-2.07-.53.1-.89.08-1.31-.09-.38-.16-.84-.16-1.38-.25.85,1.02,1.77,1.76,2.49,2.7.93,1.2,1.64,2.52,2.39,3.82.72,1.26,1.22,2.63,1.86,3.94.16.33.46.63.53.98.15.69.54,1.26.77,1.9.23.64.53,1.26.84,1.87.39.79.72,1.61.99,2.45.11.35.27.57.61.68.3.1.58.23.94.36.38-.41.93-.07,1.44-.2ZM40.05,53.92c-1.06.64-2.08,1.25-3.15,1.89,0-.15-.03-.27,0-.31.2-.16.41-.34.64-.45,1.47-.7,2.69-1.71,3.79-2.89.46-.49.73-1.1,1.12-1.64-.55-.27-1.08-.3-1.62-.29-.55.02-1.11,0-1.65,0-.38.38-.75.74-1.11,1.12-.58.6-1.16,1.17-1.59,1.92-.64,1.12-.84,1.6.22,2.63v.72c.09.09.18.18.23.23,1.15.26,1.84-.51,2.68-1.22.02.31.04.48.05.64-.39.25-.6.62-.99.83-.4.21-.89.08-1.21.42.42.36.93.52,1.43.72.68.27,1.34.57,2.1.5.21-.02.47-.06.63.03.52.3,1.03.1,1.64.12-.61-.46-1.24-.77-1.61-1.27-.35-.47-1.02-.86-.83-1.8.59,1.62,1.98,2.13,3.23,2.91,1.15.03,2.26-.41,3.53-.8-.3-.16-.46-.23-.61-.32-.7-.43-1.38-.89-1.99-1.43-.37-.33-.67-.76-.98-1.16-.06-.08-.05-.23-.1-.51,1.28,1.48,2.6,2.6,4.3,3.29.53-.39,1.34-.33,1.85-.92-.44-.39-.87-.72-1.23-1.11-.35-.38-.64-.83-.94-1.23-.74-.28-1.49-.55-2.24-.83-.48-.18-.93-.41-1.43-.56-.66-.2-1.31-.18-1.96-.15-.8.03-1.45.4-1.86,1.13-.16.29-.31.59-.56,1.04,0-.28-.02-.39,0-.5.06-.25.13-.5.16-.77.01.01.02.02.04.04.05-.04.1-.09.15-.13-.02-.02-.04-.04-.06-.06-.04.05-.09.1-.08.14ZM75.96,45.85c-.59-.14-1.02.8-1.59.02.52-.38,1.05-.76,1.57-1.14.5-.37,1.01-.71,1.47-1.12.51-.45.99-.93,1.44-1.44.43-.48,1.04-.81,1.34-1.59-.24.08-.35.1-.44.15-.41.21-.78.53-1.21.63-1.01.25-1.93.7-2.9,1.03-.45.16-.91.35-1.38.47-.3.07-.6.18-1.09.34-.29-.05-.75.13-1.22.33-.26.11-.54.18-.82.25-.7.16-1.41.3-2.08.56-.43.17-.9.31-1.33.34-.83.06-1.58.54-2.43.41-.4.33-.87.16-1.31.18-.48.02-.9.29-1.4.21-.46-.07-.93-.05-1.41-.17-.47-.11-1-.04-1.5-.26-.03.13-.02.24-.07.29-.81.79-1.64,1.58-2.49,2.4q2.29.68,4.07.68c1.08,0,2.16.02,3.23,0,.68-.02,1.39-.03,2.04-.21.35-.1.71-.05,1.03-.18,1.03-.41,2.1-.72,3.09-1.23.85-.45,1.75-.69,2.72-.58.05,0,.1.05.17.08,0,.08-.01.16-.02.24-.44.19-.88.03-1.34.17-.83.24-1.46.79-2.2,1.16-.41.2-.78.46-1.24.59-.93.26-1.83.6-2.82.55-.04,0-.09.06-.27.19,1.73-.06,3.32.14,4.9-.25.02-.08.04-.16.08-.31.79.08,1.54-.2,2.21-.58.42-.24.87-.45,1.27-.73.65-.44,1.26-.94,1.82-1.49.01.01.02.02.04.04.05-.04.1-.09.15-.13-.02-.02-.04-.04-.06-.06-.04.05-.09.1-.02.2ZM61.02,43.19c.89.1,1.69-.1,2.44.21.1.04.27.05.36,0,.63-.33,1.31-.11,1.96-.18.32-.03.68.14.94-.17.69.05,1.3-.29,1.97-.37.46-.06.9-.18,1.34-.33,1.35-.46,2.72-.86,4.06-1.34,1.36-.49,2.71-1.03,4.02-1.66.82-.4,1.64-.8,2.42-1.28.76-.46,1.6-.79,2.09-1.63.23-.4.66-.66.68-1.21,0-.2.21-.4.35-.63-.02-.87.19-1.82-.44-2.58-.25.1-.54.17-.76.33-1.18.83-2.45,1.5-3.67,2.25-1.25.78-2.67,1.17-3.89,1.98-.57-.04-.94.41-1.43.56-.52.16-1.04.32-1.52.56-.98.48-2.04.72-3.06,1.06-.53.18-1.1.33-1.64.5-.55.17-1.11.27-1.66.44-.97.31-1.93.7-2.99.58-.05,0-.1.05-.11.05-.47.95-.93,1.87-1.43,2.87ZM89.12,40.77c-.55.35-1.04.71-1.58.97-.53.26-1,.64-1.62.77-.55.11-1.05.42-1.61.56-.57.15-1.14.4-1.72.5-.6.1-1.18.42-1.78.38-.6-.04-1.16.41-1.8.13.11-.11.16-.21.24-.23.65-.15,1.3-.27,1.95-.44.47-.13.96-.22,1.43-.31.52-.1.99-.34,1.5-.41,1.01-.15,1.88-.66,2.81-1.02.79-.31,1.49-.85,2.27-1.31-.08-.77-.44-1.45-.78-2.1-.82.47-1.57.96-2.37,1.35-.64.31-1.25.69-1.95.87-.38.1-.71.36-1.08.5-.4.16-.81.26-1.22.41-.32.11-.64.35-.96.35-.74,0-1.18.47-1.54.96-.74,1.01-1.66,1.85-2.39,2.88-.64.9-1.57,1.56-2.5,2.17-.3.2-.64.36-.96.53.29.13.65.24.81.11.35-.27.71-.1,1.05-.16.37-.07.75-.16,1.12-.18,1.3-.08,2.6-.07,3.89-.22.46-.05.93-.15,1.4-.16.06,0,.12-.01.17-.03.57-.17,1.16-.32,1.72-.53.85-.32,1.69-.68,2.49-1.01.2-.86.61-1.53,1.12-2.12.5-.57,1.05-1.08,1.51-1.68.35-.46.51-.9.36-1.53ZM100.04,53.59c-.68.11-1.42-.5-2.26-.38-.29-.36-.69-.13-1.03-.18-.38-.06-.71-.23-1.12-.21-.86.05-1.72.04-2.58,0-.88-.03-1.73.13-2.6.17-.83.04-1.67.08-2.51-.14-.62-.16-1.3-.04-1.95-.19-.45-.1-.88-.41-1.31-.36-.46.05-.9.34-1.34.52-.03.01-.08-.01-.09,0-.07.07-.13.16-.24.29.82.22,1.56.46,2.31.62.76.16,1.44.61,2.26.59.32,0,.63.29.96.32.88.08,1.7.54,2.61.4.12-.02.3-.05.36.01.31.33.74.03,1.03.19.35.19.69.15,1.04.17.15,0,.35-.06.45.01.45.3.94.1,1.41.18.47.08.91.2,1.4.2.74,0,1.49-.08,2.24.14.52.16,1.11.04,1.68.18.55.14,1.16-.05,1.84.29-.51-.93-.94-1.7-1.31-2.36-.45-.17-.76-.3-1.22-.48ZM21.82,57.28c-.27.27-.5.51-.75.74-1.05,1.04-1.69,2.25-1.58,3.79.03.39.06.74.34,1.02.76-.3,1.5-.6,2.24-.89.78-.3,1.49-.71,2.24-1.07.72-.35,1.44-.7,2.12-1.13.71-.45,1.41-.9,2.1-1.39.67-.47,1.35-.92,1.98-1.45.63-.53,1.26-1.06,2.06-1.73-.37.1-.55.11-.69.19-.96.53-2.04.72-3.03,1.16-.31.14-.69-.01-1.03.19-.26.15-.61.19-.93.19-.36,0-.7.18-1.03.18-.91-.02-1.78.32-2.69.22-.45-.05-.92,0-1.35,0ZM15.77,51.26c.34.24.65.46,1.01.71.36-.46.87-.45,1.38-.42.47.03.93.11,1.4.18.91.13,1.79-.19,2.69-.21.29,0,.61-.21.94-.15.32.06.56-.16.85-.2.32-.04.64-.08.94-.19.68-.26,1.41-.26,2.09-.53.98-.38,2.02-.61,3.02-.95.67-.23,1.32-.52,1.98-.79-.24-.13-.46-.15-.66-.12-.13.02-.25.14-.39.17-.28.08-.56.13-.85.19-.62.13-1.23.36-1.88.37-.22.38-.66.09-.98.34-.22.17-.66.1-1.01.18-.33.08-.68.2-1.02.21-.8.04-1.52.51-2.34.38-.23.31-.56.14-.85.19-.31.05-.63.12-.94.18-.28.06-.56.17-.85.18-1.13.01-2.28.09-3.38-.36h.8c.62,0,1.23.02,1.85,0,.62-.03,1.25-.06,1.86-.2.4-.09.81-.12,1.19-.23.47-.14.96-.21,1.44-.29.54-.1,1.08-.19,1.61-.34.53-.14,1.06-.31,1.59-.38,1.21-.16,2.32-.67,3.67-.82-.58-.36-1.01-.64-1.35-.86-.56.13-1,.26-1.45.34-.49.09-.98.28-1.49.19-.33.36-.77.06-1.12.2-.37.15-.74.15-1.13.18-.59.03-1.17.02-1.78.14-.86.17-1.8.17-2.66,0-.7-.14-1.36-.08-1.97-.15-.49.34-1.04.49-1.2,1.02.13.27.24.5.36.73-.47.38-.91.73-1.38,1.11ZM80.52,41.33s.08.06.1.05c1-.39,2.03-.74,3-1.2,1.2-.58,2.46-1.04,3.62-1.73.78-.47.81-.42,1.02-1.12.02-.06-.02-.13,0-.18.51-1.06-.01-1.89-.68-2.6-.38-.4-.93-.77-1.45-.89-.55-.12-1.13-.45-1.72-.16-.02,2.3-1.24,3.9-2.99,5.27v1.22c-.3.45-.6.89-.9,1.34ZM62.67,39.6c.9-.31,1.62-.62,2.36-.79.49-.11.93-.29,1.38-.46.46-.17.92-.3,1.38-.46.89-.31,1.77-.62,2.65-.96.82-.32,1.65-.63,2.45-1,1.76-.84,3.47-1.78,5.08-2.88.63-.43,1.21-.95,1.82-1.42.16-.12.34-.22.5-.33-.23-.15-.47-.31-.73-.48-.79.1-1.54.37-2.27.73-1.12.56-2.29,1.05-3.35,1.72-1.17.74-2.38,1.37-3.6,2.01-.99.52-2.07.8-3.05,1.31-.87.45-1.74.85-2.66,1.15-.46.15-.93.27-1.4.41-.17.46-.33.88-.55,1.45ZM20.82,52.29c.15,0,.32-.04.44,0,.55.23,1.12.42,1.69.62.57.2,1.12.41,1.71.55.57.14,1.56.14,2.11-.03,1.04-.32,2.04-.71,3.05-1.12,1.16-.47,2.32-.95,3.45-1.5.76-.37,1.54-.71,2.33-1.08-.54-.32-1.09-.63-1.71-.99-.15.05-.37.12-.58.2-.22-.22-.42-.21-.71-.07-1.01.46-2.02.93-3.08,1.26-1.2.38-2.41.73-3.63,1.05-.44.12-.89.05-1.3.19-.53.19-1.07.25-1.61.36-.57.12-1.12.15-1.68.16-.15,0-.29,0-.46,0v.37ZM42.52,14.91c-.22.95-.07,1.7.17,2.4.24.72.63,1.4.96,2.09.58,1.22,1.34,2.38,1.25,3.81.11.52,1.02.74.55,1.43.51.4,1.03.79,1.46,1.13.88.3,1.47.83,1.91,1.64.04-.17.07-.26.07-.34,0-.09,0-.19-.05-.25-.61-.9-1.21-1.83-2.02-2.57-.15-.14-.33-.23-.54-.36v-.81c-.3-.26-.51-.45-.8-.71.33-.12.57-.2.88-.32-.08-.2-.2-.41-.23-.62-.17-1.2-.55-2.35-.94-3.49-.37-1.07-.68-2.17-1.28-3.16-.2-.32-.37-.62-.88-.57-.18.24-.39.52-.52.69ZM60.13,44.71c.37,0,.7-.02,1.03,0,.32.02.63-.08.96.15.27.19.61-.13.92-.15.93-.05,1.86.01,2.79-.18.77-.15,1.53-.31,2.29-.49.84-.2,1.69-.37,2.49-.67.42-.15.85-.11,1.26-.29.76-.32,1.55-.57,2.35-.79,2.19-.62,4.29-1.52,6.42-2.26.09-.35.17-.68.25-1-.37-.11-.67-.19-.93-.27-.28.18-.52.36-.77.49-.79.38-1.59.76-2.4,1.11-.97.41-1.93.85-2.93,1.17-.55.17-1.08.38-1.6.59-.53.22-1.09.36-1.63.5-.78.19-1.49.69-2.34.6-.29.3-.7.09-1.02.22-1.03.4-2.12.41-3.2.52-.27.03-.56.03-.83,0-.29-.03-.56-.14-.85-.17-.5-.06-1-.08-1.62-.13-.27.18-.52.51-.64,1.05ZM87.2,48.02c.57-.18,1-.31,1.43-.46.67-.23,1.35-.46,2.01-.72.88-.34,1.8-.64,2.48-1.36,1.21-.55,1.35-1.8,2.04-2.9-.81.33-1.45.56-2.07.84-.72.34-1.4.78-2.14,1.07-.78.3-1.47.75-2.21,1.12-.15.08-.32.15-.44.26-.51.5-1.06.97-1.36,1.72.08.13.19.3.27.42ZM71.64,54.25c.57.09,1.07.17,1.56.26.4.07.8.14,1.18.26,1.77.58,3.46,1.33,5.02,2.33.68.44,1.42.79,2.03,1.36.61.57,1.31,1.04,1.99,1.58-.25-1.02-.7-1.69-1.72-2.55-.1.07-.19.13-.35.24-.09-.15-.17-.28-.3-.48v-.47c-.29-.95-.94-1.45-1.5-2.02-.23-.24-.49-.43-.83-.44-.64,0-1.3-.05-1.93.01-.67.07-1.3-.22-1.95-.19-.94.04-1.84-.32-2.78-.2-.12.02-.25-.13-.38-.17-.07-.02-.15.05-.29.09.12.18.22.32.27.38ZM83.09,29.28c-.09-1.02.12-2.03.36-3.04.21-.89.42-1.78.83-2.61.07-.15.05-.35.08-.55-2.32,1.96-3.97,4.27-4.78,7.16.33.08.73.32.98.21.84-.36,1.77-.51,2.53-1.16ZM64.11,53.55c.74.08,1.39.2,2.04.2.62,0,1.23.06,1.87-.12.6-.16,1.28-.13,1.94-.31,0-.11.04-.25,0-.35-.06-.13-.18-.23-.3-.36-.14.07-.25.13-.32.17-.74-.17-1.44-.35-2.14-.49-.84-.17-1.67-.43-2.45-.77-.67-.29-1.38-.55-1.99-.98-.18-.13-.41-.21-.62-.29-.07-.03-.17,0-.2.01-.17.25-.31.46-.43.63.17.35.32.69.51,1.01.2.32.44.61.65.9.44.21.88.41,1.31.62.05.03.09.08.12.12ZM84.01,51.98c-.49-.27-.9.19-1.38.14-.42-.04-.86-.07-1.32.12-.42.18-1.03-.1-1.44.07-.49.21-.95.1-1.41.14-.49.04-.98,0-1.47,0h-1.38c-.49,0-.98.03-1.47,0-.45-.03-.9-.12-1.32-.18.05.28.09.49.14.78-.34-.23-.6-.4-.83-.56-.81-.17-1.32.28-1.74.79v.63c.22-.23.33-.35.49-.51.54,0,1.16-.07,1.76.02.99.15.98.18,1.88,0,.13-.03.29.03.43.06.17.03.33.1.5.11.71.08,1.45-.16,2.14.18.07.03.22.03.26-.02.22-.27.51-.16.77-.15.74,0,1.45-.15,2.15-.38,1.1-.37,2.27-.54,3.27-1.22ZM85.02,22.46c-.35,1.17-.75,2.19-.94,3.26-.19,1.08-.42,2.15-.56,3.3.99-.42,1.58-1.28,2.16-1.8.46-.71.39-1.35.51-1.94.19-.91.41-1.79.75-2.65.17-.44.25-.91.39-1.43-.83.45-1.58.86-2.31,1.27ZM37.55,50.09c-.26-.02-.61.06-.78-.07-.46-.37-.84-.08-1.13.12-1.02.72-2.16,1.19-3.27,1.72-1.28.6-2.67.99-4.01,1.46-.11.04-.23.08-.34.07-.36-.04-.64.1-.97.34.15.02.24.04.32.04.69-.03,1.36,0,2.05-.15.62-.15,1.31.02,1.95-.21.21-.08.44-.15.66-.18,1.06-.16,2.07-.45,3.05-.89,1.02-.45,1.8-1.2,2.63-1.9.03-.03.03-.08.04-.12-.07-.07-.14-.14-.21-.21ZM7.64,43.78c-.66,0-1.32-.02-1.99,0-.67.03-1.34.11-2.01.18.49-.37,1.04-.51,1.6-.54.67-.04,1.35-.02,2.03,0,.23,0,.5-.1.67.16.53-.08,1.02.41,1.7.07-1.35-.61-2.71-.63-4.01-.88-.58-.12-1.19-.09-1.75-.12-.53.69-.97,1.35-1.13,2.11-.15.76-.52,1.42-.8,2.26,1.03-.53,1.85-1.21,2.79-1.67.96-.48,1.95-.89,2.93-1.32-.01-.06-.02-.11-.04-.23ZM58.12,45.15c-.66-.24-1.36-.29-2.04-.42-.97-.18-1.88-.5-2.78-.88-.15-.06-.32-.06-.44-.07-.19.51-.35.93-.5,1.33.43.37.78.75,1.2,1.02.43.28.91.48,1.39.66.46.17.94.26,1.41.39.57-.75,1.37-1.2,1.75-2.02ZM94.36,20.92c-.75-.18-1.48-.5-2.29-.43-.78-.45-1.54.07-2.27.02-.56.67-1.01,1.35-1.34,2.09-.33.74-.71,1.47-.75,2.52.41-.76.95-1.13,1.43-1.53.51-.43,1.04-.83,1.64-1.14.58-.3,1.17-.58,1.77-.85.52-.24,1.5-.49,1.78-.45,0-.06,0-.12.02-.23ZM13.11,43.25c-.12-.08-.25-.16-.37-.23-.12-.07-.25-.14-.38-.2-.67-.31-1.34-.63-2.02-.91-.64-.27-1.31-.43-2-.53-.39-.06-.81.04-1.2-.02-.44-.07-.82.13-1.21.22-.57.14-1.23.21-1.54.87.88.15,1.71-.02,2.56.18,1.1.25,2.21.44,3.29.77.45.13.95.25,1.39.17.46-.08.92-.16,1.48-.32ZM32.97,26.9s-.04-.11-.07-.12c-1.09-.4-2.02-1.04-2.81-1.89-.41-.43-.79-.89-1.34-1.19-.38-.21-.7-.54-1.04-.83-.62-.53-1.24-1.07-1.99-1.72.11.42.18.69.25.96.3,1.05.82,1.98,1.65,2.7.82.71,2.06,1.41,3.23,1.74.68.19,1.34.62,2.11.35ZM59.96,51.31c.93-.61,1.27-1.02,1.32-1.72-.12-.08-.26-.21-.41-.25-.59-.14-1.18-.27-1.77-.37-.54-.1-1.88-.44-2.49-.87-.16-.11-.38-.13-.53.11.34.58.93.93,1.27,1.5.32.54.56,1.12.85,1.59.21.1.36.18.36.18.52-.06.89-.11,1.41-.17ZM92.25,26.21c-1.51.03-2.77.67-4.1.76-.32.32-.63.63-.93.93-.3.3-.65.58-.9.92-.24.32-.55.55-.91.88.96.12,1.7-.36,2.46-.63.8-.29,1.52-.79,2.25-1.25.72-.45,1.29-1.08,2.13-1.61ZM86.13,46.33c-.35.18-.69.37-1.05.53-.62.27-1.22.61-1.88.81-.66.2-1.34.29-1.99.53-.24.09-.55.02-.82.01-.26,0-.5.36-.73.16-.28-.25-.45.08-.7.05-1.05-.1-2.08.3-3.14.17-.03,0-.08.07-.2.18h.61c.68,0,1.35.02,2.03,0,.68-.03,1.36-.16,2.04-.17.81,0,1.59-.33,2.41-.2.37-.27.88-.04,1.19-.22.4-.23.84.02,1.12-.18.39-.28.77-.05,1.15-.18.07-.07.16-.16.25-.25-.41-.33-.02-.82-.28-1.24ZM45.97,61.97c1.64-.72,2.05-2.22,2.74-3.61-.84.26-1.62.5-2.42.75.1.99-.12,1.87-.32,2.87ZM22.91,14.39c.08.05.17.14.27.18.62.24,1.13.6,1.58,1.09.43.48.85,1.02,1.38,1.34.56.35.87.87,1.27,1.32.12.14.19.34.3.55.12-.24.21-.42.33-.65-.19-.26-.37-.56-.61-.81-1.36-1.39-2.7-2.82-4.39-3.84-.1-.06-.24-.07-.41-.12.11.37.2.64.29.94ZM86.44,26.36c.44-.47.75-1.02.88-1.63.24-1.11.77-2.08,1.31-3.06.17-.31.51-.54.57-1-.31.07-.56.12-.8.19-.24.07-.48.16-.67.24-.6,1.75-1.17,3.44-1.29,5.26ZM44.62,50.65h-1.68c-.56.77-1.07,1.46-1.57,2.15.9-.52,1.9-.28,2.89-.35.07-.3.15-.57.2-.85.06-.31.1-.62.16-.95ZM52.91,43.05c.11.36.24.47.51.57,1.06.37,2.16.58,3.23.88.57.16,1.2.4,1.9.12.17-.33.36-.71.57-1.13-2.14.49-3.87.49-6.2-.44ZM18.96,48.22c1.24,0,2.29.09,3.31-.03.97-.12,1.96-.21,2.92-.46-.93-.11-1.85-.22-2.77-.24-.56-.01-1.12.15-1.67.16-.59,0-1.09.22-1.79.57ZM42.06,10.77c.51.81.9,1.66,1.3,2.53.36-.04.72.11.89-.31-.6-.86-1.27-1.65-2.19-2.21ZM48.93,50.58c-.29,1.6-.23,2,.22,2.61.15-.08.3-.15.46-.22-.05-.09-.14-.18-.15-.28-.07-.49-.1-.99-.2-1.48-.04-.22-.21-.42-.32-.62ZM63.6,37.06c-.11.27-.18.43-.3.71.74-.2,1.38-.37,2.01-.54-.47-.03-.95-.26-1.37.05-.09-.06-.19-.12-.34-.22ZM4.17,25.16v.09h.55v-.09h-.55ZM44.44,22.48c-.1.03-.24.08-.38.12.02.03.04.05.06.08h.32v-.2ZM39.44,23.48c-.05,0-.11.01-.16.02.02.1.05.2.07.3.03,0,.06,0,.09-.01v-.31ZM74.55,69.32c-.05,0-.11.01-.16.02.02.1.05.2.07.3.03,0,.06,0,.09-.01v-.31ZM25.76,39.13c0-.05-.01-.11-.02-.16-.1.02-.2.05-.3.07,0,.03,0,.06.01.09h.31ZM26.32,39.31c0-.05-.01-.11-.02-.16l-.3.07s0,.06.01.09h.31ZM26.53,39.39v.09h.37v-.09h-.37ZM107.82,46.15c0-.05-.01-.11-.02-.16l-.3.07s0,.06.01.09h.31ZM73.29,48.54v-.09h-.37v.09h.37ZM26.96,18.83h.06v-.18h-.06v.18ZM27.46,19.14v-.06h-.18v.06h.18ZM5.03,25.3h-.06v.18h.06v-.18ZM34.85,26.65v.06h.18v-.06h-.18ZM24.68,35.96v-.06h-.18v.06h.18ZM24.13,38.73v-.06h-.18v.06h.18ZM25.18,38.79h-.06v.18h.06v-.18ZM65.03,51.18h.06v-.18h-.06v.18ZM60.91,51.42v.06h.18v-.06h-.18ZM88.93,61.9h-.06v.18h.06v-.18ZM74.52,67.63h-.06v.18h.06v-.18ZM39.96,68.37h-.06v.18h.06v-.18Z"/><path class="cls-1" d="M76.24,14.76q.08-.33.37-.65c.03-.47-.05-1.01.18-1.52.18-.41.21-.91.44-1.28.24-.38.02-.8.27-1.19.17-.27,0-.72-.12-1.11-.1-.34-.33-.49-.49-.72h-.91c-.44.33-.67.79-.93,1.26-.4.73-.88,1.42-1.35,2.11-.33.48-.68.95-1.04,1.41-.13.16-.32.26-.48.39.05-.19.45-.86.58-1.05.51-.74,1.01-1.49,1.5-2.24.31-.48.6-.98.84-1.39-.06-.34-.14-.6-.15-.85-.02-.59-.22-1.07-.64-1.5-.52-.53-1.06-.94-1.84-.93-.18,0-.36-.16-.56-.25-1.03,2.37-2.06,4.66-3.24,6.87-.8,1.49-1.65,2.96-2.56,4.39-.77,1.2-1.69,2.3-2.44,3.51-.09.15-.26.26-.39.4-.59.59-1.15,1.2-1.77,1.76-.95.87-1.94,1.7-2.91,2.55-.39-.05-.29.38-.5.52-.25.17-.46.41-.66.65-.17.2-.3.43-.45.66-.16-.07-.31-.13-.53-.22.07-.55.05-1.16.24-1.7.28-.79.06-1.56.15-2.34-.28-.49-.2-1.07-.41-1.58-.21-.5-.37-1.02-.6-1.51-.21-.45-.49-.87-.84-1.48,0,.56-.03.93,0,1.28.11.97-.17,1.92-.21,2.88-.01.3-.09.66-.22.91-.19.37.02.76-.15,1.05-.21.35-.16.7-.15,1.04,0,.22.14.44.17.66.11,1.02-.14,2.01-.39,2.98-.13.52-.38,1.01-.63,1.64-.08-.18-.14-.31-.23-.52.39-.67.33-1.61.49-2.49.16-.9-.37-1.78-.34-2.74.15-.1.32-.21.51-.34.29-.68.29-1.48.58-2.2.03-.08.02-.18.02-.27.04-1.15.29-2.28.2-3.44-.02-.22.1-.44.16-.72-.24-.44-.51-.93-.77-1.43-.05.01-.09.03-.14.04,0,.18-.07.39.01.52.21.33.18.69.17,1.04,0,.32.1.66-.17.95-.06.06-.02.24,0,.36.13,1.03-.16,2.04-.2,3.06-.02.51-.2,1.02-.36,1.51-.14.4-.36.77-.56,1.2.5.58-.08,1.4.39,2.02-.26.66-.17,1.35-.19,2.04-.13,0-.21.01-.29.02-.03-.07-.07-.12-.07-.17,0-.46-.01-.92,0-1.39.02-.87-.26-1.66-.6-2.43-.26-.6-.6-1.17-.95-1.82.14-.07.29-.13.53-.24.11.07.43.2.63.43.2.23.28.56.51,1.04.1-1.08.47-1.9.43-2.79.42-.47-.07-1.14.37-1.6,0-.55-.02-1.11,0-1.66.02-.35.14-.69.17-1.03.03-.37-.03-.74.01-1.11.06-.55-.09-1.08-.26-1.56-.12-.34-.02-.66-.12-.96-.08-.23.26-.39.07-.62-.18-.22.03-.52-.18-.76-.13-.15-.1-.44-.15-.67-.03-.14-.08-.28-.11-.42-.08-.46-.05-.97-.24-1.38-.35-.74-.43-1.55-.65-2.31-.21-.71-.43-1.43-.6-2.16-.17-.72-.45-1.41-.68-2.12-.05-.16-.06-.34-.09-.5-.74-.04-1.2.47-1.66.75-.67.85-.72,1.86-1.05,2.77.67,1.31,1.19,2.7,1.66,4.1.32.96.48,1.96.73,2.93.23.89.26,1.81.41,2.7.24,1.46.04,2.91.16,4.36.1,1.22-.31,2.39-.16,3.77-.24-.2-.34-.28-.6-.49.03,0-.14-.02-.31-.06-.04-.26-.05-.53-.31-.7-.63-.4-1.26-.81-1.92-1.24v-.58c.87-.15,1.33.51,2,.9-.06-.4.2-.81-.15-1.19-.05-.05-.02-.18-.02-.27-.06-1.56-.5-3.02-1.03-4.47-.37-1.02-.8-2.01-1.3-2.97-.05-.1-.05-.23-.07-.34.12.09.3.15.34.26.38,1.03,1.1,1.9,1.36,2.99.04.16.22.3.41.44.02,0-.03,0-.09,0,.02.12.05.24.07.36.04,0,.08-.01.12-.02-.01-.12-.02-.24-.1-.35-.08-.23,0-.49-.26-.66-.1-1.28-.8-2.37-1.18-3.56-.07-.21-.23-.4-.3-.51-.21.15-.4.28-.56.4.08.26.14.45.2.64-.16-.15-.32-.3-.61-.58h-.96c.15-.24.24-.38.32-.5.37-.11.79.14,1.04-.27.15-.6.01-1.19-.2-1.73-.27-.71-.17-1.32.31-1.91.1.09.18.17.32.3-.45.61-.09,1.26-.01,1.91.02.16.15.32.17.48.03.24,0,.49,0,.64.31.55.62,1.01.84,1.5.34.78.65,1.58.92,2.39.25.76.44,1.54.65,2.32.07.28.15.56.18.85.03.3-.05.63.02.92.32,1.41.12,2.85.18,4.27,0,.05.06.09.1.14.18-.79.3-1.58.27-2.39-.03-1.11-.03-2.22,0-3.33.02-.76-.33-1.47-.19-2.23-.29-.37-.08-.84-.21-1.21-.13-.38-.1-.76-.17-1.13-.14-.7-.34-1.4-.55-2.08-.29-.96-.6-1.91-.92-2.85-.16-.48-.37-.95-.56-1.44-.24.17-.42.3-.72.52.02-.65.38-1.08.38-1.61,0-.52.14-1.05.22-1.59.21-.54.54-1.02,1-1.41.51-.43,1.04-.76,1.75-.7.87.08,1.73.14,2.57.21.83-.4,1.3-1.14,1.94-1.68h.54l.27.27c-.3.46-.98.56-1.1,1.2.14.36.46.67.37,1.12-.18-.25-.36-.51-.53-.75-.45.27-.86.52-1.25.75-.44,0-.83,0-1.23,0-.05,0-.1.12,1.03,4.6,1.03,3.74.99,3.08.79,2.5-.21-.63-.22-1.3-.47-1.92-.23-.58-.29-1.23-.47-1.83-.19-.62-.41-1.24-.67-1.84-.24-.56-.3-1.18-.62-1.66h-.71c.3.82.65,1.57.85,2.36.21.8.45,1.6.7,2.39.24.79.39,1.6.68,2.38.29.77.33,1.63.49,2.55.26-.22.46-.39-.58-4.93-1.11-4.37-1.03-4.34-1-4.28.33.68.66,1.37.93,2.08.29.77.59,1.53.75,2.34.06.27.08.61.35.8,0,.38,0,.74.16,1.12.13.31-.04.76.11,1.05.21.39-.06.78.14,1.09.36.08.69.16,1,.23.08-.17.15-.32.21-.44-.05-.12-.13-.22-.13-.33,0-.42-.14-.79-.35-1.14-.14-.24-.33-.49-.37-.76-.03-.27.1-.56.16-.84.01-.06,0-.12,0-.18.06.05.15.08.18.15.41.91.81,1.81,1.29,2.89-.01.28.13.69.34,1.13.41.87.67,1.81.95,2.74.14.47.23.95.31,1.44.08.49.19.98.28,1.46.19.9.36,1.79.34,2.71,0,.14.02.28.04.54.75-.98.88-2.11,1.44-3.04,0-.34.12-.75-.03-1-.2-.35-.12-.73-.32-1.08-.19-.34-.28-.77-.21-1.2-.41-.26-.13-.71-.29-1.08-.27-.62-.26-1.36-.46-2.02-.19-.6-.14-1.26-.47-1.83-.13-.22-.2-.48-.25-.73-.14-.74-.35-1.44-.72-2.1-.13-.23-.31-.51-.21-.83.47.48.62,1.12.87,1.71.2.47.35.96.53,1.44.19.51.23,1.06.42,1.58.17.48.36,1.01.37,1.5.02,1.05.46,1.99.62,3,.06.34.13.69.16,1.03.09.09.18.18.26.26.7-1.5.69-3.1.66-4.7,0-.42-.27-.77-.21-1.22.06-.43.04-.87-.15-1.32-.16-.36-.15-.8-.24-1.19-.1-.42-.16-.87-.35-1.24-.2-.37-.24-.77-.38-1.14-.13-.32-.42-.56-.27-1.07,1.01,2.08,1.67,4.17,2.05,6.55.11-.84.35-1.51.24-2.12-.12-.66-.05-1.32-.16-1.96-.1-.61-.33-1.21-.54-1.8-.21-.59-.34-1.23-.83-1.73-.11.24-.21.46-.32.69-.25.08-.52.16-.84.25v-.69c.08-.09.21-.22.36-.38-.07-.35-.11-.73-.22-1.09-.11-.35-.28-.69-.5-1.23-.47-.49-1.14-1.02-2.1-1.07-.24-.01-.48-.17-.71-.27V.06s.05-.06.07-.06c.56.03,1.1-.06,1.68.11.95.27,1.61.82,2.09,1.6.59.95,1.15,1.92,1.63,2.93.37.77.6,1.6.83,2.43.14.51.02,1.05.2,1.48.21.49.11.95.14,1.42.04.52,0,1.04,0,1.63.15,0,.29.02.42.03.71-.51,1.03-1.28,1.47-1.97.4-.64.75-1.32,1.29-1.87,1.76-1.76,1.24-1.55,3.85-2.93.03-.01.04-.04.08-.08.59.14,1.14-.3,1.75-.19.58.1,1.18.14,1.63.19,1.42.58,2.46,1.37,2.64,2.93h1.03c.66.3,1.08.65,1.33,1.36.1,1.06-.13,2.21-.66,3.34-.25.54-.34,1.21.02,1.81.06.09.07.22.08.33,0,.05-.03.11-.05.19h-.62c-.11-.11-.22-.22-.32-.32-.16.12-.32.23-.48.35ZM61.74,17.44c.79-.84,2.63-5.74,2.76-6.58-.35.87-1.14,1.19-1.93,1.53,0,.14,0,.26,0,.37.03.81-.13,1.57-.36,2.35-.21.73-.31,1.49-.6,2.7.15-.13.21-.17.21-.2-.01-.09-.05-.17-.08-.26-.03.11-.06.22,0,.09ZM57.69,21.41s-.07,0-.11,0c0,.12,0,.24,0,.36,0,.13.03.25.05.38.14-.17.14-.34.13-.51,0-.08-.05-.15-.27-.22.12-.52.04-1-.09-1.5-.13-.51-.08-1.06-.23-1.57-.14-.47-.28-.93-.36-1.42-.07-.5-.32-.97-.46-1.46-.14-.5-.36-.96-.62-1.4-.27-.44-.51-.9-.75-1.34-.57.13-.8.5-.92.98.08.27.15.54.24.81.1.3.15.64.33.87.67.84,1.14,1.8,1.59,2.75.5,1.05,1.19,2.04,1.45,3.25ZM59.02,23.85c.15-.04.3-.03.37-.1.48-.45,1-.87,1.48-1.32,1.05-.99,2.13-1.96,2.91-3.22.49-.8,1.13-1.5,1.68-2.27.55-.77.96-1.64,1.5-2.43.31-.44.54-.94.78-1.43.8-1.67,1.73-3.28,2.42-5.01.34-.86.83-1.67,1.26-2.51-.94-.22-1.77.19-2.5.59-.72.38-1.43.86-1.96,1.53-.31.4-.63.8-.98,1.16-.61.62-.79,1.46-1.19,2.19.02.97-.64,1.71-.86,2.61-.16.64-.54,1.25-.81,1.88-.29.68-.64,1.34-.99,1.99-.33.63-.75,1.23-1.02,1.89-.62,1.5-1.29,2.98-2.03,4.44l-.04-.04c-.05.04-.1.09-.15.13.02.02.04.04.06.06.04-.05.09-.1.07-.13ZM58.46,22.11c.16-1.42-.05-2.74-.15-4.07-.02-.22-.13-.44-.17-.66-.04-.23.09-.5-.18-.67.09-.64-.34-1.16-.41-1.78-.07-.67-.48-1.28-.59-1.97-.03-.22-.25-.41-.4-.64-.36.61-.55.67-1.25.44.06.14.1.25.15.34.21.34.44.68.65,1.02.58.97.79,2.08,1.08,3.15.12.45.31.91.2,1.4.42,1.18.68,2.39.78,3.69.12-.11.21-.19.28-.26ZM58.14,23.17c-.09-.27-.19-.54-.28-.81-.06.37-.16.73-.03,1.12.13-.13.21-.21.31-.31Z"/><path class="cls-1" d="M52.23,33.07c.1-.03.26-.01.33-.08.47-.44.93-.89,1.37-1.37.19-.21.35-.46.32-.79,0,0,.01.02.03.03l.15-.13s-.04-.04-.06-.06c-.04.05-.09.1-.12.16-.18.19-.4.35-.54.56-.17.25-.32.5-.74.61.03-.25,0-.46.09-.6.45-.71.92-1.4,1.31-1.98.11-1.02.2-1.91.3-2.87.15.08.33.11.38.21.23.45.39.91.28,1.43-.03.14-.13.26-.15.4-.03.18,0,.36,0,.64.23-.19.39-.32.58-.47.23.63.22.77-.02,1.31.3.05.54,0,.84-.1.68-.22,1.27-.68,1.99-.77.5-.52,1.29-.5,1.81-1,.21-.2.63-.14.81-.47,1.12-.35,1.98-1.16,3-1.67.83-.42,1.53-1.06,2.3-1.58.73-.49,1.36-1.11,2.11-1.58.05-.03.09-.09.13-.13,1.61-1.36,3.06-2.89,4.56-4.37.23-.64.91-.92,1.19-1.54.11-.25.43-.4.66-.6-.02.11,0,.26-.07.34-.86,1.04-1.66,2.13-2.66,3.05-.21.19-.34.48-.53.7-.18.21-.4.36-.59.57-.37.41-.83.75-1.27,1.11-.44.36-.74.85-1.28,1.13-.44.23-.75.67-1.16.98-.93.72-1.9,1.37-2.84,2.07-.06.05-.09.15-.13.22-.29-.03-.48.08-.55.37-.14.03-.35-.09-.37.18-.14.03-.35-.09-.36.19,0,0-.01-.02-.03-.03-.05.04-.1.09-.15.13.02.02.04.04.06.06.04-.05.09-.1.12-.16.13-.04.34.08.36-.19.14-.03.35.09.37-.18.29.03.48-.08.55-.37.22-.07.47-.08.65-.2,1.4-.96,2.84-1.86,4.13-2.97.53-.45,1.02-.94,1.54-1.39.36-.31.82-.55,1.07-.93.28-.44.9-.56.99-1.14.44-.25.72-.67,1.02-1.04.71-.89,1.49-1.74,2.06-2.74.04-.08.17-.11.34-.08-.21.35-.38.73-.62,1.05-1.87,2.45-2.87,3.63-5.09,5.63-1.48,1.34-3.07,2.56-4.77,3.62-1.22.75-2.42,1.53-3.72,2.14-.01,0,0,.06,0,.09-.14.03-.35-.09-.37.18-.52-.03-.93.22-1.29.55-.18.07-.47-.17-.55.18-.14.03-.35-.09-.37.26,0,.02,0-.04,0-.1-.18.02-.36.05-.54.07,0,.04,0,.08.01.12.18,0,.36-.02.54-.1.14-.1.35.02.37-.26.18-.07.47.17.55-.18.52.03.93-.22,1.29-.55.14-.03.35.09.37-.18.2-.03.39,0,.6-.12.97-.54,2.03-.95,2.94-1.57.94-.64,1.91-1.24,2.8-1.95,1.22-.97,2.39-1.98,3.56-3,1.2-1.05,2.37-2.15,3.57-3.19,1.06-.92,1.97-1.99,3.05-2.87.71-.58,1.32-1.23,1.98-1.82-.15-.36-.27-.68-.39-.97-.54-.11-.93.04-1.26.38-.24.26-.51.47-.93.52v-.43c.34-.25.72-.48,1.04-.76.41-.37.89-.28,1.3-.3.28.29.54.54.72.73,1.12-.03,1.59.65,2.04,1.35.05.42.09.82.15,1.35-.2.24-.09.67-.11,1.11-.1.09-.21.19-.38.33.03.21-.02.49.1.65.31.4.28.83.28,1.27,0,.46,0,.92,0,1.38,0,1.23-.45,2.31-1.08,3.34-.23.37-.49.74-.78,1.06-.29.32-.63.6-.97.88-.34.28-.7.53-1.06.79-.06-.1-.12-.2-.22-.38.19-.26.39-.58.64-.86.39-.43.83-.83,1.23-1.25.52-.54,1.08-1.55,1.33-2.59.14-.6.14-1.18.16-1.78.01-.58,0-1.17,0-1.73-.1-.1-.19-.19-.3-.3-1.79,2.02-3.86,3.74-5.96,5.41-2.06,1.64-4.3,3.06-6.58,4.4-2.22,1.3-4.56,2.35-6.93,3.34-2.38.98-4.82,1.76-7.4,2.42.04-.16.04-.33.12-.39.21-.15.44-.31.68-.35.71-.13,1.41-.32,2.07-.58,1.06-.42,2.16-.71,3.22-1.14.73-.3,1.46-.64,2.22-.88.24-.08.44-.27.68-.36,1.23-.46,2.41-1.04,3.55-1.68,1.13-.63,2.27-1.23,3.37-1.92.73-.46,1.48-.9,2.18-1.41,1.01-.74,2.09-1.39,3.07-2.2,1.06-.87,2.13-1.72,3.18-2.59.87-.72,1.6-1.58,2.34-2.2.18-.48.31-.83.43-1.18.34-.94.33-1.03-.12-2.07-.02-.05-.01-.12-.02-.2-.31-.18-.63-.36-.94-.53-1.87,1.87-3.66,3.68-5.48,5.48-.89.87-1.79,1.73-2.74,2.54-.82.7-1.63,1.41-2.46,2.08-1.36,1.11-2.74,2.21-4.24,3.14-1.33.84-2.7,1.62-4.13,2.29-.87.08-1.58.64-2.43.85-.82.2-1.63.51-2.48.7-.51.11-1,.28-1.51.36-.47.07-.84.2-1,.7-.05.16-.21.28-.32.42-.06.06-.12.12-.18.18-.06.06-.12.12-.18.17-.13.02-.27.01-.34.08-.5.51-1.01.99-1.78,1.06-.12.01-.4.21-.24.49.92-.02,1.82-.63,2.37-1.63.05-.05.12-.11.18-.17.06-.06.12-.12.18-.18h.46c.3.4.04.79-.16,1.05-.47.62-1.08,1.08-1.9,1.2-.08.33-.17.66-.25.99-.61.35-1.25.53-1.95.45-.15-.15-.3-.3-.45-.45.38-.95.77-1.9,1.16-2.85h.38c.1-.17.3-.34.29-.5-.02-.44.11-.87-.15-1.32-.21-.36-.22-.82-.32-1.29.04-.08.11-.23.19-.39h.37s.09.05.11.09c.52,1.25.61,2.49-.18,3.68-.04.06,0,.18,0,.28,0,0-.01-.02-.03-.03-.05.04-.1.09-.15.13.02.02.04.04.06.06.04-.05.09-.1.12-.16ZM51.3,34.98c.32-.11.62-.21.92-.31,0-.03-.01-.05-.02-.08h-.9c0,.11,0,.17.02.34-.01-.01-.02-.02-.04-.04l-.15.13s.04.04.06.06c.04-.05.09-.1.11-.1ZM62.82,27.52h.06v-.18h-.06v.18ZM58.75,29.92h.06v-.18h-.06v.18Z"/><path class="cls-1" d="M46.12,36.57c-.42-.77-1.26-1.05-1.87-1.59-.04-.04-.1-.07-.15-.07-1.17-.13-1.86-.86-2.33-1.86-.01-.03-.04-.04-.05-.06v-.79c.09-.09.16-.16.22-.22.04.02.1.04.12.07.11.17.3.33.31.51.07.77.64,1.16,1.15,1.69.19-.17.33-.3.53-.48.23.32.42.66.68.94.36.38.76.67,1.34.79.6.12,1.19.41,1.69.79.31.24.63.37,1,.5.77.28,1.49.69,2.15,1.01,1,.21,1.92.33,2.83.24.19.14.36.26.52.38v.31c-.59.22-1.17.57-1.83.4-.32-.08-.62-.17-.94-.16-.37-.3-.85-.39-1.26-.61-.12-.07-.27-.09-.4-.13-.22-.18-.45-.36-.67-.54.04.53.08,1.01.11,1.5.01.24.02.49,0,.73-.04.37-.09.75-.19,1.11-.06.25-.27.39-.55.34-.15-.93.39-1.82.12-2.8-.5,2.07-1.15,3.07-2.31,3.62-.03.16-.03.31-.09.44-.86,1.88-2.09,3.48-3.59,4.88-.09.09-.27.09-.4.14.41-.44.85-.86,1.22-1.33.52-.66,1.04-1.33,1.48-2.04.45-.73.8-1.52,1.12-2.28-.05-.11-.09-.19-.13-.27.14-.17.26-.36.42-.51.74-.67,1.11-1.54,1.44-2.45.17-.5.45-.96.69-1.47-.4.05-.74-.09-1.08-.28-.4-.22-.83-.38-1.29-.46Z"/><path class="cls-1" d="M43.9,31.59c.05.15.09.31.14.51-.04.04-.13.13-.25.25-.43-.5-.86-.99-1.33-1.52-.13,1.01.84,1.33,1.28,2.07-.69-.1-1-.6-1.42-.95-.45-.37-.37-.95-.63-1.43.16-.1.33-.21.5-.32-.12-.26-.32-.56.18-.81.2.26.42.54.66.86.1-.05.21-.11.33-.14.11-.03.22,0,.38,0-.41-.65-.65-1.25-.56-2.01.13,0,.27-.02.43-.03.24.34.13.83.48,1.12-.1.32.09.6.21.83.32.59.93,1.29,1.54,1.53.63.25.81.77.8,1.22-.02.89.54,1.22,1.13,1.59.12.08.25.13.38.19-.04.08-.07.16-.15.31.18.18.43.39.62.63.18.22.3.49.5.81-.12.06-.26.13-.41.19-.31-.31-.7-.71-1.15-1.16.06-.19.13-.43.22-.73-.62-.1-1.08-.52-1.38-1.01-.27-.44-.82-.93-.3-1.58-.81-.25-1.38-.86-2.03-1.35-.06-.06-.12-.12-.19-.18,0,0,.02-.01.03-.03-.04-.05-.09-.1-.13-.15-.02.02-.04.04-.06.06.05.04.1.09.16.12.07.05.13.11.19.18.04.13.05.3.13.4.37.4.76.78,1.16,1.17-.08.08-.16.17-.25.26-.41-.3-.82-.6-1.24-.89,0,0,.02-.01.03-.03l-.13-.15s-.04.04-.06.06c.05.04.1.09.16.12ZM43.23,30.66h.06v-.18h-.06v.18Z"/><path class="cls-1" d="M24.68,70.22c-.1.32.09.6.21.83.3.56,1.3,1.38,1.98,1.62.74.26,1.48.46,2.31.2.54-.17,1.13-.21,1.7-.48.32-.56.81-1.03,1.38-1.43-.04.14-.05.3-.14.4-.26.29-.55.56-.83.84.09.16.16.29.26.46-.27.32-.61.44-1.03.54-.38.09-.73.32-1.14.35-.41.03-.81.17-1.21.16-.4-.01-.8-.15-1.35-.26-.37-.24-.91-.52-1.37-.91-.31-.26-.61-.53-.82-.94-.23-.46-.67-.83-1.01-1.24-.11-.13-.19-.27-.35-.49.58-.07.9.5,1.39.34Z"/><path class="cls-1" d="M55.18,2.93c.39.46.63.98.75,1.57.04.22.16.42.27.72.18-.48.34-.9.51-1.34h1.38c.25.18.53.39.88.64-.63.22-1.24-.53-1.73.16-.02.24-.03.51-.06.78,0,.05-.08.09-.12.13.13.28.37.51.35.85-.17-.18-.35-.35-.57-.58-.37.19-.89.33-1.21.66-.32.33-.46.84-.61,1.13.09.32.13.48.17.64-.18.13-.36.26-.55.39-.14-.07-.26-.14-.38-.2-.08-.57.11-1.12.27-1.64.22-.71.88-1.1,1.36-1.55-.12-.28-.28-.51-.31-.76-.06-.55-.46-1.02-.4-1.59Z"/><path class="cls-1" d="M24.68,70.22c.58-.51,1.26-.87,1.9-1.3.65-.44,1.29-.9,1.92-1.36.64-.47,1.24-1,1.88-1.49.62-.47,1.15-1.06,1.77-1.55.61-.49,1.2-1.01,1.71-1.59.54-.61,1.11-1.19,1.65-1.8.53-.59,1.02-1.22,1.53-1.84.07.04.14.07.21.1,0,.05.01.09,0,.11-1.61,2.18-3.49,4.14-5.52,5.91-2.14,1.87-4.44,3.58-7.05,4.79Z"/><path class="cls-1" d="M72.18,13.37c0,.15.03.24,0,.27-2.65,3.49-5.57,6.74-8.74,9.76-.33.32-.74.55-1.1.82-.19-.2,0-.25.05-.31.6-.61,1.22-1.21,1.82-1.83,1.65-1.71,3.35-3.38,4.93-5.15.82-.93,1.7-1.83,2.38-2.88.16-.25.42-.43.67-.68Z"/><path class="cls-1" d="M50.83,36.76c-.13-.15-.22-.25-.3-.35.06-.11.08-.2.12-.2,1.34-.13,2.55-.67,3.6-1.56.24-.2.52-.36.8-.55.15.14.25.25.37.36-.33,1.06-1.3,1.29-2.08,1.74-.43-.12-.57.61-1.05.37-.44.27-.93.17-1.45.19Z"/><path class="cls-1" d="M40.22,27.99c.09.09.17.17.25.25.09-.07.18-.14.32-.25.11.2.21.36.33.58,0,.37-.15.88.04,1.2.19.33-.05.75.23.91-.06.11-.14.24-.2.35-.11-.04-.17-.04-.22-.08-.46-.39-.4-1-.58-1.51-.08-.22-.11-.42-.25-.64-.47-.76-.77-1.59-.91-2.49.14-.12.27-.23.46-.39.34.7.51,1.35.52,2.05Z"/><path class="cls-1" d="M44,29.14c.14-.22.24-.36.36-.55,1.24.14,1.87.97,2.4,2.03.82.09,1.19.77,1.57,1.45-.08.08-.16.16-.29.29-.23-.24-.44-.49-.68-.72-.19-.19-.41-.35-.69-.58h-.31c-.48-.92-1.33-1.44-2.36-1.9Z"/><path class="cls-1" d="M50.53,24.02c.2,0,.32-.02.5-.02.22.54.47,1.06.47,1.69,0,.62-.07,1.23.14,1.86.19.57.05,1.23-.28,1.87-.09-.1-.23-.2-.23-.28.03-.25.2-.52.16-.75-.19-.99-.38-1.99-.54-2.99-.38-.43-.09-.91-.21-1.38Z"/><path class="cls-1" d="M57.27,55.2c.14.14.25.23.34.32-.08.21-.21.37-.2.52.1.94-.19,1.85-.2,2.78,0,.95-.06,1.91.02,2.85.05.61.25,1.21.08,2.05-.06-.32-.07-.46-.11-.6-.05-.16-.15-.31-.18-.48-.15-.92-.33-3.88-.16-4.7.1-.47.12-.93.17-1.4.04-.43.15-.85.23-1.34Z"/><path class="cls-1" d="M48.52,33.33v-.79c.13-.02.27-.03.48-.05.87,1.02,1.31,2.14.75,3.51h-.5c.05-.94.03-1.87-.73-2.67Z"/><path class="cls-1" d="M44.26,27.36c.01-.13.02-.25.03-.42.64.19,1.07.63,1.58.91.57.32.73.87,1.25,1.33-.25,0-.42.04-.54,0-.21-.09-.43-.21-.57-.38-.47-.6-1.33-.68-1.76-1.43Z"/><path class="cls-1" d="M48.15,34.54c-.12-.51-.32-.98-.71-1.36-.27-.27-.45-.59-.39-1.03.15,0,.27-.02.36-.02.61.25.7.9,1.11,1.3.02.17.02.34.05.51.05.24.11.47.21.85-.3-.12-.46-.19-.63-.25Z"/><path class="cls-1" d="M40.18,30.23c-.85-.16-.82-1.03-1.27-1.51v-.76c.12-.09.26-.2.48-.37.15.97.36,1.83.79,2.64Z"/><path class="cls-1" d="M47,35.3c-.3-.1-.54-.18-.87-.28l-1.1-1.1v-.65c.07.03.12.04.15.06.62.57,1.24,1.14,1.85,1.71.02.02-.01.11-.04.26Z"/><path class="cls-1" d="M31.71,8.85c.29.26.58.5.86.78.07.07.05.22.07.33-.29-.26-.58-.5-.86-.78-.07-.07-.05-.22-.07-.33Z"/><path class="cls-1" d="M21.73,63.19c-.37.33-.77.59-1.29.55.37-.33.77-.59,1.29-.55Z"/><path class="cls-1" d="M34.66,17.16c-.33-.24-.74-.42-.74-.92.33.24.74.42.74.92Z"/><path class="cls-1" d="M75.14,16.24c-.03-.41.26-.58.55-.74.03.41-.26.58-.55.74Z"/><path class="cls-1" d="M19.51,53.58c-.36.02-.71-.02-.92-.37.36-.02.71.02.92.37Z"/><path class="cls-1" d="M75.88,15.32c-.03-.29.08-.48.37-.55.03.29-.08.48-.37.55Z"/><path class="cls-1" d="M74.54,63.74c0,.18.02.36.03.54-.04,0-.08,0-.12.01-.02-.18-.05-.36-.07-.54.06,0,.11,0,.17,0Z"/><path class="cls-1" d="M31.34,8.48h.37v.37c-.12-.12-.25-.25-.37-.37Z"/><path class="cls-1" d="M52.4,71.69c-.14-.03-.35.09-.37-.18.14.03.35-.09.37.18Z"/><path class="cls-1" d="M52.77,71.88c-.14-.03-.35.09-.37-.18.14.03.35-.09.37.18Z"/><path class="cls-1" d="M17.77,52.81c.22.06.34.1.45.13-.09.03-.17.07-.26.08-.03,0-.06-.07-.19-.21Z"/><path class="cls-1" d="M13.15,53c.22.06.34.1.45.13-.09.03-.17.07-.26.08-.03,0-.06-.07-.19-.21Z"/><path class="cls-1" d="M18.22,53.02c.14.03.35-.09.37.18-.14-.03-.35.09-.37-.18Z"/><path class="cls-1" d="M75.88,15.32c-.06.06-.12.12-.18.18.06-.06.12-.12.18-.18Z"/><path class="cls-1" d="M17.17,52.66v-.18h.06v.18h-.06Z"/><path class="cls-1" d="M17.6,52.66v.18h-.06v-.18h.06Z"/><path class="cls-1" d="M12.98,52.84v.18h-.06v-.18h.06Z"/><path class="cls-1" d="M62.01,61.77h.18v.06h-.18v-.06Z"/><path class="cls-1" d="M75.89,64.28c.05.04.1.09.15.13-.02.02-.04.04-.06.06-.04-.05-.09-.1-.13-.15.01-.01.02-.02.04-.04Z"/><path class="cls-1" d="M51.48,70.96c-.06-.06-.12-.12-.18-.18.06.06.12.12.18.18Z"/><path class="cls-1" d="M51.67,71.14c-.06-.06-.12-.12-.18-.18.06.06.12.12.18.18Z"/><path class="cls-1" d="M51.85,71.33c-.06-.06-.12-.12-.18-.18.06.06.12.12.18.18Z"/><path class="cls-1" d="M52.04,71.51c-.06-.06-.12-.12-.18-.18.06.06.12.12.18.18Z"/><path class="cls-1" d="M34.09,33.72c-.53-.71-1.06-1.36-1.34-2.29-.63-.69-1.55-1.16-2.4-1.72-1.06-.7-2.2-1.26-3.29-1.91-1.1-.66-2.28-1.19-3.43-1.76-.92-.46-1.85-.89-2.77-1.33-.75-.36-1.49-.71-2.23-1.08-.15-.07-.28-.17-.39-.32,1.72.48,3.3,1.33,4.92,2.05,1.61.72,3.2,1.5,4.75,2.35,1.59.88,3.15,1.83,4.67,2.93.15,0,.36.02.61.03.25.49.54.95.72,1.46.1.31.25.57.4.85.33.61.72,1.16,1.24,1.61.04.04.02.16.03.28-.17-.07-.3-.13-.44-.18-.04.03-.07.06-.11.09.13.14.25.27.38.41,0,.15-.01.29-.02.52-.84-.39-1.07-1.14-1.5-1.75.08-.1.13-.17.2-.25Z"/><path class="cls-1" d="M37.62,46.19c.38.89,1.09,1.43,2.02,1.84.83.11,1.71-.16,2.6-.36-.1.14-.2.29-.33.47.17.31.63.48.76,1.05-.52-.31-.94-.56-1.39-.83-.74.36-1.49.28-2.22.01-.35-.26-.69-.56-1.07-.78-.31-.18-.28-.66-.7-.72-.59-1.01-1.52-1.68-2.41-2.4-.24-.19-.53-.37-.82-.45-.34-.09-.72-.07-1.06-.09-.24.16-.45.31-.72.49-.13.26-.21.64-.61.89-.12-.12-.24-.21-.32-.33-.04-.07-.02-.18-.03-.31.34-.41.54-.96,1.2-1.13.22-.05.44-.16.67-.15,1.23.08,2.36-.27,3.46-.78.53-.25,1.04-.48,1.49-.87.12-.1.15-.21.23-.29.18-.18.29-.49.63-.47.08.59-.11,1.02-.63,1.29-.99.51-1.98,1.01-3.06,1.3-.11.03-.22.07-.32.12-.05.03-.09.08-.15.15.95.47,1.82,1.03,2.36,1.99.08.14.27.22.41.33Z"/><path class="cls-1" d="M40.5,39.46c-.06.16-.1.26-.14.38-.42.17-.82.03-1.22-.18-.83-.43-1.7-.8-2.08-1.84.09-.09.2-.22.34-.37.92.5,1.55,1.37,2.53,1.72q-.1-.51.16-.9c1.7.9,3.42,1.72,5.44,1.25.11.37-.08.52-.32.56-.27.04-.55-.01-.83.02-.25.03-.5.15-.75.17-1.11.1-2.14-.17-3.12-.81Z"/><path class="cls-1" d="M45.57,41.75c-.48.8-1.33,1.12-2.06,1.58-.3.19-.72.25-1.08.26-.49.02-.85.21-1.17.54-.66.68-1.47,1.13-2.29,1.58-.21.12-.4.09-.6.12.09-.39.49-.37.73-.55.12-.09.25-.18.32-.39-.58.2-1.15.39-1.73.59.55-.54,1.28-.66,1.91-.98.66-.34,1.29-.73,2.02-1.15-.22-.08-.33-.11-.66-.23.29,0,.43,0,.57,0-.06-.07-.12-.14-.17-.22h1.73c.86-.34,1.61-.9,2.49-1.14Z"/><path class="cls-1" d="M40.16,41.69c.08-.24.14-.45.22-.7.77.09,1.5-.13,2.25.19.4-.3.93-.11,1.43-.17.49-.05.98-.13,1.48-.13-.57.51-1.22.81-1.97.88-.44.04-.88-.08-1.32.17-.21.12-.63.13-.8,0-.38-.3-.77-.07-1.28-.22Z"/><path class="cls-1" d="M35.74,35.62c.06-.14.14-.32.22-.51.09.04.14.04.17.07.79.67,1.58,1.35,2.38,2,.26.21.59.34.87.53.06.04.06.19.12.42-.55-.25-1.04-.37-1.4-.65-.76-.59-1.74-.88-2.37-1.86Z"/><path class="cls-1" d="M46.31,46.92c.02-.11,0-.27.07-.33.42-.42.62-.98.83-1.49.31-.76.55-1.55.78-2.34.13-.47.19-.98.54-1.37,0,.15-.02.31,0,.46.11.91-.26,1.71-.55,2.53-.23.65-.56,1.25-.94,1.81-.19.28-.48.5-.73.75Z"/><path class="cls-1" d="M38.36,45.82c-.19.24-.42.38-.74.37.1-.41.42-.38.74-.37Z"/><path class="cls-1" d="M46.31,46.92v.37h-.37v-.37h.37Z"/><path class="cls-1" d="M45.94,47.3c0,.11-.02.22-.03.37-.13,0-.23-.02-.35-.02.11-.17.2-.3.28-.44.03.03.07.06.1.09Z"/><path class="cls-1" d="M45.94,41.75h-.37c.08-.06.15-.12.23-.18.05.06.09.12.14.18Z"/><path class="cls-1" d="M18.94,26.61c-.05-.04-.1-.09-.15-.13.02-.02.04-.04.06-.06l.13.15s-.02.02-.04.04Z"/><path class="cls-1" d="M23.21,31.4h-.18c.04-.05.08-.1.12-.15.02.05.04.1.06.15Z"/><path class="cls-1" d="M20.9,32.88h-.39c-.24-.36-.71-.54-.83-1,.05-.05.07-.08.09-.09.01,0,.05,0,.06.02.34.34.68.68,1.06,1.06Z"/><path class="cls-1" d="M52.22,70.39c.11,0,.22.02.37.03,0,.13-.02.23-.02.35-.17-.11-.3-.2-.43-.28.03-.03.06-.07.09-.1Z"/><path class="cls-1" d="M51.85,70.03h.37v.37c-.12-.12-.25-.25-.37-.37Z"/><path class="cls-1" d="M50.93,69.11h.37v.37c-.12-.12-.25-.25-.37-.37Z"/><path class="cls-1" d="M52.59,68.18c.06.06.12.12.18.18-.06-.06-.12-.12-.18-.18Z"/><path class="cls-1" d="M52.77,68.37c.06.06.12.12.18.18-.06-.06-.12-.12-.18-.18Z"/><path class="cls-1" d="M52.96,68.55c.06.06.12.12.18.18-.06-.06-.12-.12-.18-.18Z"/><path class="cls-1" d="M53.14,68.74c.06.06.12.12.18.18-.06-.06-.12-.12-.18-.18Z"/><path class="cls-1" d="M53.33,68.92c.06.06.12.12.18.18-.06-.06-.12-.12-.18-.18Z"/><path class="cls-1" d="M53.51,69.11c.06.06.12.12.18.18-.06-.06-.12-.12-.18-.18Z"/><path class="cls-1" d="M53.7,69.29c.06.06.12.12.18.18-.06-.06-.12-.12-.18-.18Z"/><path class="cls-1" d="M51.3,69.48c.06.06.12.12.18.18-.06-.06-.12-.12-.18-.18Z"/><path class="cls-1" d="M51.67,69.85c-.06-.06-.12-.12-.18-.18.06.06.12.12.18.18Z"/><path class="cls-1" d="M51.67,69.85c.06.06.12.12.18.18-.06-.06-.12-.12-.18-.18Z"/><path class="cls-1" d="M84.01,63.01c.06.06.12.12.18.18-.06-.06-.12-.12-.18-.18Z"/><path class="cls-1" d="M36.88,69.66c-.01-.32-.04-.64.37-.74.01.32-.13.55-.37.74Z"/><path class="cls-1" d="M36.51,70.22c-.03-.29.08-.48.37-.55.03.29-.08.48-.37.55Z"/><path class="cls-1" d="M37.62,68.18c.03-.14-.09-.35.18-.37-.03.14.09.35-.18.37Z"/><path class="cls-1" d="M37.44,68.55c.03-.14-.09-.35.18-.37-.03.14.09.35-.18.37Z"/><path class="cls-1" d="M37.25,68.92c.03-.14-.09-.35.18-.37-.03.14.09.35-.18.37Z"/><path class="cls-1" d="M36.33,70.59c.03-.14-.09-.35.18-.37-.03.14.09.35-.18.37Z"/><path class="cls-1" d="M100.47,65.21c.05.04.1.09.15.13-.02.02-.04.04-.06.06-.04-.05-.09-.1-.13-.15.01-.01.02-.02.04-.04Z"/><path class="cls-1" d="M51.48,85.37c.11.02.26,0,.33.07.33.34.64.69.96,1.04h-.31c-.31-.36-.65-.73-.98-1.11Z"/><path class="cls-1" d="M52.77,86.48c.06.06.12.12.18.18-.06-.06-.12-.12-.18-.18Z"/><path class="cls-1" d="M52.96,86.67c.06.06.12.12.18.18-.06-.06-.12-.12-.18-.18Z"/><path class="cls-1" d="M52.96,85.19h-.37v-.37c.12.12.25.25.37.37Z"/><path class="cls-1" d="M51.85,84.08c-.06-.06-.12-.12-.18-.18.06.06.12.12.18.18Z"/><path class="cls-1" d="M52.04,84.26c-.06-.06-.12-.12-.18-.18.06.06.12.12.18.18Z"/><path class="cls-1" d="M52.22,84.45c-.06-.06-.12-.12-.18-.18.06.06.12.12.18.18Z"/><path class="cls-1" d="M52.4,84.63c-.06-.06-.12-.12-.18-.18.06.06.12.12.18.18Z"/><path class="cls-1" d="M52.59,84.82c-.06-.06-.12-.12-.18-.18.06.06.12.12.18.18Z"/><path class="cls-1" d="M53.14,85.37c-.06-.06-.12-.12-.18-.18.06.06.12.12.18.18Z"/><path class="cls-1" d="M53.33,85.56c-.06-.06-.12-.12-.18-.18.06.06.12.12.18.18Z"/><path class="cls-1" d="M53.51,85.74c-.06-.06-.12-.12-.18-.18.06.06.12.12.18.18Z"/><path class="cls-1" d="M5.86,47.66c1.21-.89,1.5-2.28,2.47-3.14.04.04.07.06.08.08.01.02.02.07,0,.09-.66,1.02-1.26,2.09-2.1,2.97h-.46Z"/><path class="cls-1" d="M6.02,47.66c-.06.06-.12.12-.18.18.06-.06.12-.12.18-.18Z"/><path class="cls-1" d="M5.85,47.87c-.04.05-.09.1-.13.15-.02-.02-.04-.04-.06-.06l.15-.13s.02.02.04.04Z"/><path class="cls-1" d="M7.13,48.03c-.06.06-.12.12-.18.18.06-.06.12-.12.18-.18Z"/><path class="cls-1" d="M6.94,48.22c-.06.06-.12.12-.18.18.06-.06.12-.12.18-.18Z"/><path class="cls-1" d="M104.15,46.37c.07-.06.14-.16.22-.18.17-.03.35,0,.52,0-.07.06-.14.16-.22.18-.17.03-.35,0-.52,0Z"/></svg>